G04*
G04 #@! TF.GenerationSoftware,Altium Limited,Altium Designer,21.9.2 (33)*
G04*
G04 Layer_Physical_Order=2*
G04 Layer_Color=16711680*
%FSLAX25Y25*%
%MOIN*%
G70*
G04*
G04 #@! TF.SameCoordinates,977259B3-0B2F-49BC-815A-F7E1FA794F82*
G04*
G04*
G04 #@! TF.FilePolarity,Positive*
G04*
G01*
G75*
%ADD12R,0.08858X0.12795*%
%ADD19C,0.01500*%
%ADD20C,0.21102*%
%ADD21C,0.09449*%
%ADD22R,0.06693X0.06693*%
%ADD23C,0.06693*%
%ADD24C,0.03937*%
D12*
X107205Y102165D02*
D03*
X92205D02*
D03*
X77205D02*
D03*
X62205D02*
D03*
X47205D02*
D03*
X32205D02*
D03*
D19*
X65537Y80197D02*
X71908D01*
X75373Y76732D01*
X63403Y61900D02*
X81687D01*
X44935Y80368D02*
X63403Y61900D01*
X93239D02*
X107563Y76225D01*
X81751Y61836D02*
X85808D01*
X85872Y61900D01*
X81687D02*
X81751Y61836D01*
X85872Y61900D02*
X93239D01*
X107500Y91900D02*
Y101870D01*
X107563Y76225D02*
Y91837D01*
X107500Y91900D02*
X107563Y91837D01*
X107205Y102165D02*
X107500Y101870D01*
X98234Y92366D02*
X98700Y91900D01*
X92205Y100197D02*
Y102165D01*
Y100197D02*
X98234Y94168D01*
Y92366D02*
Y94168D01*
X77205Y100197D02*
X80884Y96518D01*
X84834D02*
X91751Y89600D01*
X92400D01*
X77205Y100197D02*
Y102165D01*
X80884Y96518D02*
X84834D01*
X62400Y92300D02*
Y101970D01*
X62205Y102165D02*
X62400Y101970D01*
X50884Y93876D02*
Y98486D01*
X52000Y92100D02*
Y92760D01*
X47205Y102165D02*
X50884Y98486D01*
Y93876D02*
X52000Y92760D01*
X32200Y102161D02*
X32205Y102165D01*
X32200Y92100D02*
Y102161D01*
Y92100D02*
X41800D01*
X46026Y87874D02*
X81102D01*
X41800Y92100D02*
X46026Y87874D01*
X75373Y76732D02*
X83780D01*
X88526Y106299D02*
X92205Y102620D01*
Y102165D02*
Y102620D01*
X77205Y102165D02*
Y102856D01*
X73526Y106535D02*
X77205Y102856D01*
D20*
X12205Y101295D02*
D03*
X101299Y12205D02*
D03*
D21*
X44935Y80368D02*
D03*
Y31155D02*
D03*
X64620D02*
D03*
Y80368D02*
D03*
D22*
X83780Y86732D02*
D03*
D23*
Y76732D02*
D03*
Y66732D02*
D03*
Y56732D02*
D03*
Y46732D02*
D03*
Y36732D02*
D03*
Y26732D02*
D03*
Y16732D02*
D03*
X9961Y72244D02*
D03*
Y33661D02*
D03*
D24*
X107500Y91900D02*
D03*
X98700D02*
D03*
X52000Y92100D02*
D03*
X62400Y92300D02*
D03*
X32200Y92100D02*
D03*
X92400Y89600D02*
D03*
M02*
