G04*
G04 #@! TF.GenerationSoftware,Altium Limited,Altium Designer,21.9.2 (33)*
G04*
G04 Layer_Color=65535*
%FSLAX25Y25*%
%MOIN*%
G70*
G04*
G04 #@! TF.SameCoordinates,977259B3-0B2F-49BC-815A-F7E1FA794F82*
G04*
G04*
G04 #@! TF.FilePolarity,Positive*
G04*
G01*
G75*
%ADD10C,0.01000*%
%ADD11C,0.00787*%
D10*
X75250Y21313D02*
Y90211D01*
X33911Y21313D02*
Y90211D01*
X75250D01*
X33911Y21313D02*
X75250D01*
X105600Y86399D02*
X104600Y87399D01*
X102601D01*
X101601Y86399D01*
Y85400D01*
X102601Y84400D01*
X104600D01*
X105600Y83400D01*
Y82401D01*
X104600Y81401D01*
X102601D01*
X101601Y82401D01*
X107599Y81401D02*
X109599D01*
X108599D01*
Y87399D01*
X107599Y86399D01*
X5561Y78369D02*
Y84367D01*
X8561D01*
X9560Y83367D01*
Y81367D01*
X8561Y80368D01*
X5561D01*
X7561D02*
X9560Y78369D01*
X11559D02*
X13559D01*
X12559D01*
Y84367D01*
X11559Y83367D01*
X91986Y26568D02*
Y32566D01*
X94985D01*
X95984Y31566D01*
Y29567D01*
X94985Y28567D01*
X91986D01*
X97984Y26568D02*
X99983D01*
X98983D01*
Y32566D01*
X97984Y31566D01*
X23338Y63997D02*
Y57999D01*
X26337D01*
X27337Y58999D01*
Y59998D01*
X26337Y60998D01*
X23338D01*
X26337D01*
X27337Y61998D01*
Y62997D01*
X26337Y63997D01*
X23338D01*
X29336Y57999D02*
X31335D01*
X30336D01*
Y63997D01*
X29336Y62997D01*
D11*
X78780Y11732D02*
X88779D01*
X78780D02*
Y91732D01*
X88779D01*
Y11732D02*
Y91732D01*
X5039Y39173D02*
X14882D01*
Y66732D01*
X5039D02*
X14882D01*
X5039Y39173D02*
Y66732D01*
M02*
