M48
;Layer_Color=9474304
;FILE_FORMAT=2:4
INCH,TZ
;TYPE=PLATED
T1F00S00C0.0197
T2F00S00C0.0433
T3F00S00C0.0591
T4F00S00C0.1378
%
T01
X3220Y9210
X5200
X6240Y9230
X9240Y8960
X9870Y9190
X10750
T02
X8378Y1673
Y2673
Y3673
Y4673
Y5673
X996Y3366
Y7224
X8378Y7673
Y8673
Y6673
T03
X4493Y3116
X6462
Y8037
X4493
T04
X10130Y1220
X1220Y10130
M30
