G04*
G04 #@! TF.GenerationSoftware,Altium Limited,Altium Designer,21.9.2 (33)*
G04*
G04 Layer_Color=16711935*
%FSLAX25Y25*%
%MOIN*%
G70*
G04*
G04 #@! TF.SameCoordinates,93054606-FE03-420F-9484-365B998A07D4*
G04*
G04*
G04 #@! TF.FilePolarity,Positive*
G04*
G01*
G75*
%ADD11C,0.00787*%
G36*
X139245Y72571D02*
X139272Y72568D01*
X139301Y72565D01*
X139334Y72562D01*
X139370Y72555D01*
X139445Y72535D01*
X139527Y72506D01*
X139570Y72486D01*
X139609Y72463D01*
X139649Y72437D01*
X139685Y72408D01*
X139688Y72404D01*
X139695Y72401D01*
X139701Y72391D01*
X139714Y72378D01*
X139731Y72358D01*
X139747Y72339D01*
X139767Y72316D01*
X139787Y72286D01*
X139806Y72257D01*
X139826Y72220D01*
X139842Y72184D01*
X139862Y72142D01*
X139895Y72053D01*
X139905Y72001D01*
X139914Y71948D01*
X139606Y71925D01*
Y71929D01*
X139603Y71932D01*
Y71942D01*
X139600Y71955D01*
X139590Y71988D01*
X139577Y72027D01*
X139560Y72070D01*
X139537Y72112D01*
X139514Y72152D01*
X139488Y72188D01*
X139481Y72194D01*
X139465Y72207D01*
X139439Y72230D01*
X139403Y72253D01*
X139357Y72276D01*
X139304Y72299D01*
X139242Y72312D01*
X139176Y72319D01*
X139150D01*
X139124Y72316D01*
X139088Y72309D01*
X139049Y72299D01*
X139003Y72283D01*
X138960Y72263D01*
X138914Y72234D01*
X138908Y72230D01*
X138891Y72214D01*
X138865Y72191D01*
X138832Y72155D01*
X138796Y72112D01*
X138757Y72060D01*
X138721Y71997D01*
X138684Y71925D01*
Y71922D01*
X138681Y71916D01*
X138678Y71906D01*
X138671Y71889D01*
X138665Y71866D01*
X138658Y71840D01*
X138652Y71811D01*
X138642Y71778D01*
X138635Y71738D01*
X138629Y71692D01*
X138622Y71646D01*
X138616Y71594D01*
X138609Y71538D01*
X138602Y71476D01*
X138599Y71410D01*
Y71345D01*
X138606Y71348D01*
X138619Y71371D01*
X138642Y71400D01*
X138675Y71437D01*
X138714Y71479D01*
X138760Y71519D01*
X138812Y71561D01*
X138871Y71594D01*
X138875D01*
X138878Y71597D01*
X138888Y71601D01*
X138901Y71607D01*
X138930Y71620D01*
X138973Y71637D01*
X139025Y71653D01*
X139081Y71666D01*
X139144Y71676D01*
X139209Y71679D01*
X139239D01*
X139262Y71676D01*
X139288Y71673D01*
X139321Y71666D01*
X139354Y71660D01*
X139393Y71650D01*
X139432Y71640D01*
X139475Y71624D01*
X139518Y71604D01*
X139564Y71584D01*
X139609Y71555D01*
X139652Y71525D01*
X139695Y71489D01*
X139737Y71450D01*
X139741Y71446D01*
X139747Y71440D01*
X139757Y71427D01*
X139773Y71407D01*
X139790Y71384D01*
X139806Y71358D01*
X139826Y71325D01*
X139849Y71289D01*
X139868Y71250D01*
X139888Y71204D01*
X139905Y71158D01*
X139924Y71105D01*
X139937Y71046D01*
X139947Y70987D01*
X139954Y70925D01*
X139957Y70859D01*
Y70856D01*
Y70850D01*
Y70836D01*
Y70820D01*
X139954Y70797D01*
X139951Y70774D01*
X139944Y70715D01*
X139931Y70649D01*
X139914Y70574D01*
X139888Y70499D01*
X139852Y70420D01*
Y70416D01*
X139849Y70410D01*
X139842Y70400D01*
X139832Y70387D01*
X139810Y70351D01*
X139780Y70305D01*
X139737Y70256D01*
X139691Y70203D01*
X139636Y70154D01*
X139570Y70108D01*
X139567D01*
X139564Y70105D01*
X139554Y70098D01*
X139541Y70092D01*
X139521Y70082D01*
X139501Y70075D01*
X139452Y70056D01*
X139393Y70033D01*
X139324Y70016D01*
X139249Y70003D01*
X139167Y70000D01*
X139150D01*
X139130Y70003D01*
X139101D01*
X139068Y70010D01*
X139032Y70016D01*
X138989Y70023D01*
X138944Y70036D01*
X138894Y70049D01*
X138842Y70069D01*
X138789Y70092D01*
X138737Y70118D01*
X138684Y70151D01*
X138632Y70190D01*
X138583Y70233D01*
X138533Y70282D01*
X138530Y70285D01*
X138524Y70295D01*
X138511Y70311D01*
X138494Y70338D01*
X138478Y70367D01*
X138458Y70407D01*
X138435Y70453D01*
X138412Y70505D01*
X138389Y70567D01*
X138366Y70636D01*
X138347Y70715D01*
X138330Y70797D01*
X138314Y70892D01*
X138301Y70994D01*
X138294Y71102D01*
X138291Y71220D01*
Y71223D01*
Y71230D01*
Y71240D01*
Y71253D01*
Y71269D01*
X138294Y71289D01*
Y71338D01*
X138301Y71400D01*
X138304Y71469D01*
X138314Y71545D01*
X138324Y71627D01*
X138340Y71712D01*
X138356Y71801D01*
X138379Y71889D01*
X138406Y71978D01*
X138435Y72063D01*
X138471Y72142D01*
X138514Y72217D01*
X138560Y72283D01*
X138563Y72286D01*
X138570Y72296D01*
X138583Y72309D01*
X138602Y72329D01*
X138625Y72352D01*
X138655Y72375D01*
X138691Y72401D01*
X138727Y72430D01*
X138770Y72457D01*
X138819Y72483D01*
X138871Y72506D01*
X138927Y72529D01*
X138989Y72549D01*
X139055Y72562D01*
X139124Y72571D01*
X139196Y72575D01*
X139226D01*
X139245Y72571D01*
D02*
G37*
G36*
X137887Y70846D02*
Y70843D01*
Y70833D01*
Y70817D01*
Y70794D01*
X137884Y70767D01*
Y70738D01*
X137881Y70702D01*
X137878Y70666D01*
X137868Y70587D01*
X137855Y70505D01*
X137835Y70426D01*
X137822Y70387D01*
X137809Y70354D01*
Y70351D01*
X137805Y70348D01*
X137802Y70338D01*
X137796Y70325D01*
X137776Y70295D01*
X137750Y70256D01*
X137717Y70213D01*
X137674Y70170D01*
X137625Y70128D01*
X137566Y70088D01*
X137563D01*
X137559Y70085D01*
X137549Y70082D01*
X137536Y70075D01*
X137504Y70059D01*
X137454Y70046D01*
X137399Y70029D01*
X137333Y70013D01*
X137258Y70003D01*
X137176Y70000D01*
X137143D01*
X137120Y70003D01*
X137094Y70007D01*
X137061Y70010D01*
X137025Y70016D01*
X136989Y70023D01*
X136907Y70046D01*
X136864Y70062D01*
X136821Y70082D01*
X136779Y70102D01*
X136739Y70128D01*
X136703Y70157D01*
X136667Y70190D01*
X136664Y70193D01*
X136661Y70200D01*
X136651Y70210D01*
X136641Y70226D01*
X136628Y70246D01*
X136611Y70269D01*
X136595Y70298D01*
X136579Y70331D01*
X136566Y70371D01*
X136549Y70413D01*
X136536Y70459D01*
X136523Y70508D01*
X136513Y70564D01*
X136503Y70623D01*
X136500Y70685D01*
Y70754D01*
X136802Y70797D01*
Y70794D01*
Y70784D01*
Y70771D01*
X136805Y70751D01*
X136808Y70728D01*
X136812Y70702D01*
X136818Y70639D01*
X136831Y70574D01*
X136851Y70508D01*
X136874Y70449D01*
X136890Y70426D01*
X136907Y70403D01*
X136910Y70400D01*
X136926Y70387D01*
X136946Y70371D01*
X136979Y70351D01*
X137015Y70331D01*
X137061Y70315D01*
X137117Y70302D01*
X137176Y70298D01*
X137195D01*
X137222Y70302D01*
X137251Y70305D01*
X137284Y70311D01*
X137320Y70321D01*
X137356Y70335D01*
X137392Y70354D01*
X137395Y70358D01*
X137408Y70364D01*
X137422Y70377D01*
X137441Y70397D01*
X137464Y70420D01*
X137484Y70446D01*
X137504Y70476D01*
X137517Y70512D01*
X137520Y70515D01*
X137523Y70531D01*
X137530Y70554D01*
X137536Y70587D01*
X137543Y70633D01*
X137546Y70685D01*
X137553Y70751D01*
Y70827D01*
Y72565D01*
X137887D01*
Y70846D01*
D02*
G37*
G36*
X79380Y63497D02*
X79406Y63494D01*
X79439Y63490D01*
X79475Y63484D01*
X79511Y63477D01*
X79593Y63454D01*
X79636Y63438D01*
X79679Y63418D01*
X79721Y63398D01*
X79761Y63372D01*
X79797Y63343D01*
X79833Y63310D01*
X79836Y63306D01*
X79839Y63300D01*
X79849Y63290D01*
X79859Y63274D01*
X79872Y63254D01*
X79888Y63231D01*
X79905Y63201D01*
X79921Y63169D01*
X79934Y63129D01*
X79951Y63087D01*
X79964Y63041D01*
X79977Y62992D01*
X79987Y62936D01*
X79997Y62877D01*
X80000Y62814D01*
Y62746D01*
X79698Y62703D01*
Y62706D01*
Y62716D01*
Y62729D01*
X79695Y62749D01*
X79692Y62772D01*
X79688Y62798D01*
X79682Y62860D01*
X79669Y62926D01*
X79649Y62992D01*
X79626Y63051D01*
X79610Y63074D01*
X79593Y63097D01*
X79590Y63100D01*
X79574Y63113D01*
X79554Y63129D01*
X79521Y63149D01*
X79485Y63169D01*
X79439Y63185D01*
X79383Y63198D01*
X79324Y63201D01*
X79305D01*
X79278Y63198D01*
X79249Y63195D01*
X79216Y63188D01*
X79180Y63179D01*
X79144Y63165D01*
X79108Y63146D01*
X79105Y63143D01*
X79092Y63136D01*
X79078Y63123D01*
X79059Y63103D01*
X79036Y63080D01*
X79016Y63054D01*
X78996Y63024D01*
X78983Y62988D01*
X78980Y62985D01*
X78977Y62969D01*
X78970Y62946D01*
X78964Y62913D01*
X78957Y62867D01*
X78954Y62814D01*
X78947Y62749D01*
Y62673D01*
Y60935D01*
X78613D01*
Y62654D01*
Y62657D01*
Y62667D01*
Y62683D01*
Y62706D01*
X78616Y62732D01*
Y62762D01*
X78619Y62798D01*
X78622Y62834D01*
X78632Y62913D01*
X78645Y62995D01*
X78665Y63074D01*
X78678Y63113D01*
X78691Y63146D01*
Y63149D01*
X78695Y63152D01*
X78698Y63162D01*
X78704Y63175D01*
X78724Y63205D01*
X78750Y63244D01*
X78783Y63287D01*
X78826Y63329D01*
X78875Y63372D01*
X78934Y63411D01*
X78937D01*
X78941Y63415D01*
X78950Y63418D01*
X78964Y63425D01*
X78996Y63441D01*
X79046Y63454D01*
X79101Y63471D01*
X79167Y63487D01*
X79242Y63497D01*
X79324Y63500D01*
X79357D01*
X79380Y63497D01*
D02*
G37*
G36*
X77337Y61486D02*
X77343Y61489D01*
X77356Y61502D01*
X77383Y61525D01*
X77415Y61552D01*
X77458Y61585D01*
X77510Y61621D01*
X77566Y61660D01*
X77632Y61699D01*
X77635D01*
X77638Y61703D01*
X77648Y61709D01*
X77661Y61716D01*
X77697Y61735D01*
X77740Y61758D01*
X77789Y61785D01*
X77845Y61811D01*
X77901Y61837D01*
X77957Y61860D01*
Y61558D01*
X77953D01*
X77943Y61552D01*
X77930Y61545D01*
X77914Y61535D01*
X77891Y61525D01*
X77865Y61509D01*
X77802Y61476D01*
X77734Y61434D01*
X77655Y61381D01*
X77579Y61325D01*
X77504Y61263D01*
X77501Y61260D01*
X77494Y61256D01*
X77484Y61247D01*
X77471Y61234D01*
X77438Y61201D01*
X77396Y61155D01*
X77353Y61106D01*
X77307Y61047D01*
X77264Y60988D01*
X77228Y60925D01*
X77028D01*
Y63457D01*
X77337D01*
Y61486D01*
D02*
G37*
G36*
X75451Y63497D02*
X75474D01*
X75506Y63494D01*
X75539Y63487D01*
X75579Y63477D01*
X75621Y63467D01*
X75667Y63454D01*
X75713Y63438D01*
X75762Y63415D01*
X75811Y63392D01*
X75857Y63362D01*
X75903Y63326D01*
X75946Y63287D01*
X75989Y63241D01*
X75992Y63238D01*
X75998Y63225D01*
X76012Y63208D01*
X76028Y63182D01*
X76044Y63146D01*
X76067Y63103D01*
X76087Y63054D01*
X76110Y62995D01*
X76133Y62926D01*
X76156Y62851D01*
X76179Y62769D01*
X76195Y62673D01*
X76212Y62572D01*
X76225Y62463D01*
X76231Y62342D01*
X76235Y62214D01*
Y62208D01*
Y62195D01*
Y62172D01*
Y62139D01*
X76231Y62103D01*
X76228Y62060D01*
Y62011D01*
X76222Y61958D01*
X76212Y61844D01*
X76195Y61722D01*
X76172Y61604D01*
X76159Y61548D01*
X76143Y61496D01*
Y61493D01*
X76139Y61483D01*
X76133Y61470D01*
X76126Y61450D01*
X76117Y61427D01*
X76103Y61401D01*
X76074Y61339D01*
X76034Y61273D01*
X75989Y61201D01*
X75933Y61132D01*
X75871Y61073D01*
X75867Y61070D01*
X75861Y61066D01*
X75851Y61060D01*
X75838Y61050D01*
X75821Y61040D01*
X75798Y61027D01*
X75775Y61014D01*
X75746Y60997D01*
X75680Y60971D01*
X75602Y60948D01*
X75513Y60932D01*
X75464Y60925D01*
X75382D01*
X75362Y60928D01*
X75342D01*
X75293Y60935D01*
X75238Y60945D01*
X75178Y60961D01*
X75116Y60981D01*
X75057Y61007D01*
X75054D01*
X75050Y61010D01*
X75031Y61024D01*
X75005Y61040D01*
X74968Y61066D01*
X74929Y61102D01*
X74887Y61142D01*
X74844Y61188D01*
X74805Y61243D01*
Y61247D01*
X74801Y61250D01*
X74795Y61260D01*
X74788Y61270D01*
X74772Y61302D01*
X74749Y61348D01*
X74722Y61404D01*
X74696Y61466D01*
X74673Y61542D01*
X74650Y61621D01*
Y61624D01*
X74647Y61630D01*
X74644Y61644D01*
X74641Y61660D01*
X74637Y61683D01*
X74631Y61709D01*
X74627Y61742D01*
X74621Y61778D01*
X74614Y61817D01*
X74611Y61863D01*
X74604Y61909D01*
X74601Y61965D01*
X74598Y62021D01*
X74595Y62080D01*
X74591Y62145D01*
Y62214D01*
Y62221D01*
Y62234D01*
Y62257D01*
Y62290D01*
X74595Y62326D01*
Y62368D01*
X74598Y62418D01*
X74601Y62470D01*
X74614Y62585D01*
X74631Y62706D01*
X74654Y62824D01*
X74667Y62880D01*
X74683Y62933D01*
Y62936D01*
X74686Y62946D01*
X74693Y62959D01*
X74699Y62979D01*
X74709Y63002D01*
X74722Y63028D01*
X74752Y63087D01*
X74791Y63156D01*
X74837Y63225D01*
X74893Y63293D01*
X74959Y63352D01*
X74962D01*
X74965Y63359D01*
X74978Y63366D01*
X74992Y63375D01*
X75008Y63385D01*
X75031Y63398D01*
X75054Y63411D01*
X75083Y63425D01*
X75149Y63454D01*
X75228Y63477D01*
X75316Y63494D01*
X75365Y63497D01*
X75415Y63500D01*
X75431D01*
X75451Y63497D01*
D02*
G37*
G36*
X262810Y97041D02*
Y97028D01*
Y97008D01*
X262807Y96979D01*
X262804Y96946D01*
X262797Y96910D01*
X262787Y96874D01*
X262774Y96834D01*
Y96831D01*
X262771Y96828D01*
X262768Y96818D01*
X262761Y96805D01*
X262748Y96772D01*
X262725Y96729D01*
X262696Y96677D01*
X262663Y96621D01*
X262620Y96562D01*
X262571Y96500D01*
X262568Y96497D01*
X262564Y96493D01*
X262555Y96483D01*
X262545Y96470D01*
X262512Y96434D01*
X262466Y96388D01*
X262410Y96333D01*
X262341Y96267D01*
X262259Y96195D01*
X262164Y96116D01*
X262161Y96113D01*
X262148Y96100D01*
X262125Y96083D01*
X262099Y96060D01*
X262066Y96031D01*
X262027Y95998D01*
X261984Y95962D01*
X261941Y95923D01*
X261849Y95837D01*
X261757Y95749D01*
X261715Y95703D01*
X261676Y95660D01*
X261639Y95621D01*
X261610Y95581D01*
X261607Y95578D01*
X261603Y95572D01*
X261597Y95562D01*
X261587Y95549D01*
X261577Y95529D01*
X261564Y95509D01*
X261535Y95460D01*
X261508Y95404D01*
X261485Y95342D01*
X261469Y95273D01*
X261462Y95240D01*
Y95208D01*
Y95204D01*
Y95198D01*
Y95191D01*
X261466Y95178D01*
X261469Y95142D01*
X261479Y95099D01*
X261495Y95050D01*
X261518Y95001D01*
X261551Y94948D01*
X261597Y94899D01*
X261603Y94893D01*
X261620Y94880D01*
X261649Y94860D01*
X261689Y94834D01*
X261738Y94811D01*
X261797Y94791D01*
X261866Y94778D01*
X261941Y94771D01*
X261964D01*
X261977Y94775D01*
X261997D01*
X262020Y94778D01*
X262069Y94788D01*
X262125Y94804D01*
X262187Y94827D01*
X262246Y94860D01*
X262299Y94906D01*
X262305Y94912D01*
X262318Y94929D01*
X262341Y94962D01*
X262364Y95001D01*
X262391Y95057D01*
X262414Y95119D01*
X262427Y95191D01*
X262433Y95276D01*
X262751Y95244D01*
Y95240D01*
X262748Y95227D01*
Y95211D01*
X262745Y95185D01*
X262738Y95155D01*
X262732Y95122D01*
X262722Y95083D01*
X262709Y95043D01*
X262679Y94955D01*
X262660Y94909D01*
X262637Y94866D01*
X262610Y94820D01*
X262581Y94778D01*
X262548Y94739D01*
X262509Y94702D01*
X262505Y94699D01*
X262499Y94696D01*
X262486Y94686D01*
X262469Y94673D01*
X262446Y94660D01*
X262420Y94643D01*
X262391Y94627D01*
X262354Y94607D01*
X262315Y94591D01*
X262273Y94574D01*
X262227Y94558D01*
X262174Y94545D01*
X262122Y94532D01*
X262063Y94522D01*
X262000Y94519D01*
X261935Y94515D01*
X261899D01*
X261876Y94519D01*
X261843Y94522D01*
X261807Y94525D01*
X261767Y94532D01*
X261725Y94542D01*
X261633Y94565D01*
X261587Y94581D01*
X261538Y94601D01*
X261489Y94624D01*
X261443Y94653D01*
X261400Y94683D01*
X261357Y94719D01*
X261354Y94722D01*
X261348Y94729D01*
X261338Y94739D01*
X261325Y94755D01*
X261308Y94775D01*
X261288Y94797D01*
X261272Y94824D01*
X261249Y94857D01*
X261229Y94889D01*
X261213Y94929D01*
X261177Y95014D01*
X261164Y95060D01*
X261154Y95109D01*
X261147Y95162D01*
X261144Y95217D01*
Y95224D01*
Y95244D01*
X261147Y95273D01*
X261151Y95312D01*
X261161Y95355D01*
X261170Y95408D01*
X261187Y95460D01*
X261207Y95516D01*
X261210Y95522D01*
X261220Y95542D01*
X261233Y95572D01*
X261256Y95608D01*
X261285Y95654D01*
X261321Y95706D01*
X261364Y95765D01*
X261413Y95824D01*
Y95827D01*
X261420Y95831D01*
X261430Y95841D01*
X261439Y95854D01*
X261456Y95870D01*
X261475Y95890D01*
X261498Y95913D01*
X261528Y95939D01*
X261557Y95969D01*
X261594Y96001D01*
X261633Y96041D01*
X261676Y96080D01*
X261725Y96123D01*
X261774Y96165D01*
X261833Y96214D01*
X261892Y96267D01*
X261895Y96270D01*
X261905Y96277D01*
X261918Y96290D01*
X261938Y96303D01*
X261958Y96323D01*
X261984Y96346D01*
X262040Y96395D01*
X262102Y96447D01*
X262161Y96500D01*
X262187Y96523D01*
X262210Y96546D01*
X262233Y96569D01*
X262249Y96585D01*
X262253Y96588D01*
X262263Y96598D01*
X262276Y96615D01*
X262295Y96638D01*
X262315Y96661D01*
X262338Y96690D01*
X262381Y96749D01*
X261141D01*
Y97048D01*
X262810D01*
Y97041D01*
D02*
G37*
G36*
X263155Y97238D02*
X263168Y97231D01*
X263188Y97221D01*
X263214Y97212D01*
X263243Y97198D01*
X263276Y97182D01*
X263312Y97166D01*
X263394Y97123D01*
X263486Y97071D01*
X263581Y97008D01*
X263683Y96936D01*
X263686D01*
X263696Y96943D01*
X263709Y96949D01*
X263732Y96959D01*
X263758Y96972D01*
X263788Y96985D01*
X263824Y96998D01*
X263863Y97012D01*
X263909Y97028D01*
X263955Y97041D01*
X264008Y97054D01*
X264063Y97067D01*
X264178Y97084D01*
X264241Y97087D01*
X264303Y97090D01*
X264336D01*
X264362Y97087D01*
X264391Y97084D01*
X264424Y97080D01*
X264463Y97077D01*
X264509Y97071D01*
X264605Y97051D01*
X264709Y97021D01*
X264762Y97002D01*
X264814Y96979D01*
X264870Y96956D01*
X264923Y96926D01*
X264926Y96923D01*
X264936Y96920D01*
X264949Y96910D01*
X264969Y96897D01*
X264992Y96880D01*
X265018Y96857D01*
X265047Y96834D01*
X265080Y96808D01*
X265116Y96775D01*
X265149Y96743D01*
X265185Y96703D01*
X265221Y96661D01*
X265257Y96618D01*
X265290Y96569D01*
X265352Y96464D01*
Y96460D01*
X265359Y96451D01*
X265366Y96434D01*
X265375Y96411D01*
X265385Y96382D01*
X265398Y96349D01*
X265411Y96310D01*
X265425Y96267D01*
X265441Y96218D01*
X265454Y96165D01*
X265467Y96109D01*
X265477Y96051D01*
X265493Y95926D01*
X265497Y95857D01*
X265500Y95788D01*
Y95785D01*
Y95772D01*
Y95752D01*
X265497Y95726D01*
Y95693D01*
X265493Y95654D01*
X265487Y95611D01*
X265480Y95565D01*
X265474Y95513D01*
X265464Y95460D01*
X265438Y95345D01*
X265398Y95231D01*
X265375Y95171D01*
X265349Y95112D01*
X265346Y95109D01*
X265343Y95099D01*
X265333Y95083D01*
X265320Y95063D01*
X265306Y95037D01*
X265287Y95007D01*
X265264Y94975D01*
X265238Y94939D01*
X265179Y94863D01*
X265103Y94784D01*
X265018Y94709D01*
X264969Y94676D01*
X264919Y94643D01*
X264916Y94640D01*
X264906Y94637D01*
X264890Y94627D01*
X264870Y94617D01*
X264844Y94607D01*
X264811Y94591D01*
X264778Y94578D01*
X264736Y94561D01*
X264693Y94548D01*
X264644Y94532D01*
X264591Y94519D01*
X264539Y94509D01*
X264421Y94489D01*
X264359Y94486D01*
X264293Y94483D01*
X264260D01*
X264234Y94486D01*
X264204Y94489D01*
X264168Y94493D01*
X264129Y94496D01*
X264083Y94502D01*
X263988Y94522D01*
X263883Y94551D01*
X263827Y94571D01*
X263775Y94594D01*
X263719Y94620D01*
X263667Y94650D01*
X263663Y94653D01*
X263653Y94656D01*
X263640Y94666D01*
X263621Y94679D01*
X263598Y94699D01*
X263568Y94719D01*
X263539Y94742D01*
X263506Y94771D01*
X263473Y94801D01*
X263437Y94837D01*
X263401Y94876D01*
X263365Y94916D01*
X263332Y94962D01*
X263299Y95011D01*
X263237Y95116D01*
X263233Y95119D01*
X263230Y95129D01*
X263224Y95145D01*
X263214Y95168D01*
X263204Y95194D01*
X263191Y95231D01*
X263178Y95267D01*
X263161Y95309D01*
X263148Y95358D01*
X263135Y95411D01*
X263122Y95463D01*
X263112Y95522D01*
X263096Y95650D01*
X263089Y95719D01*
Y95788D01*
Y95791D01*
Y95801D01*
Y95818D01*
Y95841D01*
X263092Y95867D01*
Y95900D01*
X263096Y95936D01*
X263102Y95975D01*
X263112Y96060D01*
X263129Y96155D01*
X263152Y96254D01*
X263184Y96349D01*
Y96352D01*
X263188Y96359D01*
X263194Y96372D01*
X263201Y96392D01*
X263211Y96411D01*
X263224Y96438D01*
X263257Y96493D01*
X263296Y96562D01*
X263345Y96634D01*
X263404Y96706D01*
X263470Y96779D01*
X263466Y96782D01*
X263460Y96785D01*
X263447Y96795D01*
X263430Y96805D01*
X263411Y96818D01*
X263384Y96834D01*
X263329Y96867D01*
X263263Y96907D01*
X263191Y96946D01*
X263115Y96982D01*
X263040Y97012D01*
X263142Y97241D01*
X263145D01*
X263155Y97238D01*
D02*
G37*
G36*
X123212Y26576D02*
X123218Y26580D01*
X123231Y26593D01*
X123257Y26616D01*
X123290Y26642D01*
X123333Y26675D01*
X123385Y26711D01*
X123441Y26750D01*
X123507Y26790D01*
X123510D01*
X123513Y26793D01*
X123523Y26799D01*
X123536Y26806D01*
X123572Y26826D01*
X123615Y26849D01*
X123664Y26875D01*
X123720Y26901D01*
X123776Y26927D01*
X123831Y26950D01*
Y26649D01*
X123828D01*
X123818Y26642D01*
X123805Y26635D01*
X123789Y26625D01*
X123766Y26616D01*
X123740Y26599D01*
X123677Y26566D01*
X123608Y26524D01*
X123530Y26471D01*
X123454Y26416D01*
X123379Y26353D01*
X123375Y26350D01*
X123369Y26347D01*
X123359Y26337D01*
X123346Y26324D01*
X123313Y26291D01*
X123271Y26245D01*
X123228Y26196D01*
X123182Y26137D01*
X123139Y26078D01*
X123103Y26015D01*
X122903D01*
Y28548D01*
X123212D01*
Y26576D01*
D02*
G37*
G36*
X124458Y28738D02*
X124471Y28731D01*
X124491Y28721D01*
X124517Y28712D01*
X124547Y28699D01*
X124579Y28682D01*
X124615Y28666D01*
X124697Y28623D01*
X124789Y28571D01*
X124884Y28508D01*
X124986Y28436D01*
X124989D01*
X124999Y28443D01*
X125012Y28449D01*
X125035Y28459D01*
X125061Y28472D01*
X125091Y28485D01*
X125127Y28498D01*
X125166Y28512D01*
X125212Y28528D01*
X125258Y28541D01*
X125311Y28554D01*
X125366Y28567D01*
X125481Y28584D01*
X125544Y28587D01*
X125606Y28590D01*
X125639D01*
X125665Y28587D01*
X125695Y28584D01*
X125727Y28580D01*
X125767Y28577D01*
X125813Y28571D01*
X125908Y28551D01*
X126013Y28521D01*
X126065Y28502D01*
X126118Y28479D01*
X126173Y28456D01*
X126226Y28426D01*
X126229Y28423D01*
X126239Y28420D01*
X126252Y28410D01*
X126272Y28397D01*
X126295Y28380D01*
X126321Y28357D01*
X126350Y28334D01*
X126383Y28308D01*
X126419Y28275D01*
X126452Y28243D01*
X126488Y28203D01*
X126524Y28161D01*
X126560Y28118D01*
X126593Y28069D01*
X126655Y27964D01*
Y27961D01*
X126662Y27951D01*
X126669Y27934D01*
X126679Y27911D01*
X126688Y27882D01*
X126701Y27849D01*
X126715Y27810D01*
X126728Y27767D01*
X126744Y27718D01*
X126757Y27665D01*
X126770Y27610D01*
X126780Y27551D01*
X126797Y27426D01*
X126800Y27357D01*
X126803Y27288D01*
Y27285D01*
Y27272D01*
Y27252D01*
X126800Y27226D01*
Y27193D01*
X126797Y27154D01*
X126790Y27111D01*
X126783Y27065D01*
X126777Y27013D01*
X126767Y26960D01*
X126741Y26845D01*
X126701Y26730D01*
X126679Y26671D01*
X126652Y26612D01*
X126649Y26609D01*
X126646Y26599D01*
X126636Y26583D01*
X126623Y26563D01*
X126610Y26537D01*
X126590Y26507D01*
X126567Y26475D01*
X126541Y26439D01*
X126482Y26363D01*
X126406Y26284D01*
X126321Y26209D01*
X126272Y26176D01*
X126223Y26143D01*
X126219Y26140D01*
X126209Y26137D01*
X126193Y26127D01*
X126173Y26117D01*
X126147Y26107D01*
X126114Y26091D01*
X126082Y26078D01*
X126039Y26061D01*
X125996Y26048D01*
X125947Y26032D01*
X125895Y26019D01*
X125842Y26009D01*
X125724Y25989D01*
X125662Y25986D01*
X125596Y25983D01*
X125563D01*
X125537Y25986D01*
X125507Y25989D01*
X125471Y25993D01*
X125432Y25996D01*
X125386Y26002D01*
X125291Y26022D01*
X125186Y26052D01*
X125130Y26071D01*
X125078Y26094D01*
X125022Y26120D01*
X124970Y26150D01*
X124966Y26153D01*
X124957Y26156D01*
X124943Y26166D01*
X124924Y26179D01*
X124901Y26199D01*
X124871Y26219D01*
X124842Y26242D01*
X124809Y26271D01*
X124776Y26301D01*
X124740Y26337D01*
X124704Y26376D01*
X124668Y26416D01*
X124635Y26461D01*
X124602Y26511D01*
X124540Y26616D01*
X124537Y26619D01*
X124533Y26629D01*
X124527Y26645D01*
X124517Y26668D01*
X124507Y26694D01*
X124494Y26730D01*
X124481Y26767D01*
X124464Y26809D01*
X124451Y26858D01*
X124438Y26911D01*
X124425Y26963D01*
X124415Y27022D01*
X124399Y27150D01*
X124392Y27219D01*
Y27288D01*
Y27291D01*
Y27301D01*
Y27318D01*
Y27341D01*
X124396Y27367D01*
Y27400D01*
X124399Y27436D01*
X124405Y27475D01*
X124415Y27560D01*
X124432Y27655D01*
X124455Y27754D01*
X124487Y27849D01*
Y27852D01*
X124491Y27859D01*
X124497Y27872D01*
X124504Y27892D01*
X124514Y27911D01*
X124527Y27937D01*
X124560Y27993D01*
X124599Y28062D01*
X124648Y28134D01*
X124707Y28207D01*
X124773Y28279D01*
X124769Y28282D01*
X124763Y28285D01*
X124750Y28295D01*
X124733Y28305D01*
X124714Y28318D01*
X124688Y28334D01*
X124632Y28367D01*
X124566Y28407D01*
X124494Y28446D01*
X124419Y28482D01*
X124343Y28512D01*
X124445Y28741D01*
X124448D01*
X124458Y28738D01*
D02*
G37*
%LPC*%
G36*
X139186Y71407D02*
X139127D01*
X139111Y71404D01*
X139094D01*
X139072Y71400D01*
X139025Y71387D01*
X138970Y71371D01*
X138908Y71345D01*
X138848Y71305D01*
X138819Y71282D01*
X138793Y71256D01*
Y71253D01*
X138786Y71250D01*
X138779Y71240D01*
X138770Y71230D01*
X138747Y71197D01*
X138721Y71151D01*
X138694Y71092D01*
X138671Y71027D01*
X138655Y70948D01*
X138652Y70905D01*
X138648Y70859D01*
Y70856D01*
Y70853D01*
Y70833D01*
X138652Y70800D01*
X138658Y70761D01*
X138665Y70715D01*
X138675Y70662D01*
X138691Y70607D01*
X138714Y70551D01*
X138717Y70544D01*
X138727Y70528D01*
X138743Y70502D01*
X138763Y70469D01*
X138789Y70433D01*
X138822Y70397D01*
X138862Y70364D01*
X138904Y70331D01*
X138911Y70328D01*
X138924Y70318D01*
X138950Y70308D01*
X138983Y70295D01*
X139019Y70279D01*
X139065Y70269D01*
X139111Y70259D01*
X139160Y70256D01*
X139180D01*
X139193Y70259D01*
X139229Y70266D01*
X139275Y70275D01*
X139331Y70295D01*
X139386Y70321D01*
X139442Y70361D01*
X139472Y70387D01*
X139498Y70413D01*
X139501Y70416D01*
X139504Y70420D01*
X139511Y70430D01*
X139521Y70443D01*
X139531Y70459D01*
X139544Y70479D01*
X139557Y70502D01*
X139570Y70525D01*
X139593Y70587D01*
X139616Y70662D01*
X139632Y70748D01*
X139639Y70794D01*
Y70843D01*
Y70846D01*
Y70856D01*
Y70869D01*
X139636Y70886D01*
Y70908D01*
X139632Y70935D01*
X139622Y70994D01*
X139606Y71059D01*
X139580Y71128D01*
X139544Y71194D01*
X139524Y71227D01*
X139498Y71256D01*
Y71259D01*
X139491Y71263D01*
X139472Y71279D01*
X139442Y71305D01*
X139403Y71332D01*
X139350Y71358D01*
X139291Y71384D01*
X139222Y71400D01*
X139186Y71407D01*
D02*
G37*
G36*
X75415Y63244D02*
X75395D01*
X75379Y63241D01*
X75362Y63238D01*
X75339Y63234D01*
X75290Y63218D01*
X75234Y63195D01*
X75205Y63179D01*
X75175Y63159D01*
X75142Y63136D01*
X75113Y63106D01*
X75083Y63077D01*
X75057Y63041D01*
X75054Y63038D01*
X75050Y63031D01*
X75044Y63018D01*
X75034Y62998D01*
X75024Y62975D01*
X75011Y62942D01*
X74998Y62906D01*
X74982Y62860D01*
X74968Y62808D01*
X74955Y62749D01*
X74942Y62680D01*
X74932Y62605D01*
X74923Y62519D01*
X74916Y62428D01*
X74910Y62326D01*
Y62214D01*
Y62211D01*
Y62208D01*
Y62188D01*
Y62155D01*
X74913Y62113D01*
Y62063D01*
X74916Y62008D01*
X74923Y61942D01*
X74929Y61876D01*
X74946Y61739D01*
X74959Y61670D01*
X74972Y61601D01*
X74988Y61539D01*
X75008Y61483D01*
X75031Y61430D01*
X75057Y61388D01*
Y61384D01*
X75064Y61378D01*
X75070Y61368D01*
X75083Y61355D01*
X75113Y61322D01*
X75156Y61283D01*
X75208Y61247D01*
X75270Y61214D01*
X75303Y61201D01*
X75339Y61191D01*
X75379Y61184D01*
X75418Y61181D01*
X75437D01*
X75454Y61184D01*
X75493Y61191D01*
X75539Y61204D01*
X75595Y61227D01*
X75651Y61260D01*
X75680Y61279D01*
X75706Y61302D01*
X75733Y61332D01*
X75759Y61365D01*
X75762Y61368D01*
X75766Y61375D01*
X75772Y61391D01*
X75782Y61411D01*
X75795Y61437D01*
X75808Y61470D01*
X75821Y61509D01*
X75838Y61558D01*
X75851Y61611D01*
X75867Y61673D01*
X75880Y61742D01*
X75890Y61821D01*
X75903Y61906D01*
X75910Y62001D01*
X75913Y62103D01*
X75916Y62214D01*
Y62218D01*
Y62221D01*
Y62240D01*
Y62273D01*
X75913Y62316D01*
Y62365D01*
X75910Y62421D01*
X75903Y62483D01*
X75897Y62552D01*
X75880Y62690D01*
X75871Y62759D01*
X75854Y62824D01*
X75838Y62890D01*
X75818Y62946D01*
X75798Y62998D01*
X75772Y63041D01*
X75769Y63044D01*
X75766Y63051D01*
X75756Y63060D01*
X75746Y63074D01*
X75716Y63106D01*
X75674Y63143D01*
X75621Y63179D01*
X75559Y63211D01*
X75526Y63225D01*
X75490Y63234D01*
X75454Y63241D01*
X75415Y63244D01*
D02*
G37*
G36*
X264293Y96805D02*
X264263D01*
X264227Y96802D01*
X264181Y96795D01*
X264132Y96789D01*
X264073Y96779D01*
X264014Y96762D01*
X263955Y96739D01*
X263958D01*
X263962Y96736D01*
X263981Y96723D01*
X264014Y96703D01*
X264057Y96684D01*
X264106Y96661D01*
X264162Y96634D01*
X264221Y96615D01*
X264286Y96595D01*
X264204Y96352D01*
X264201D01*
X264191Y96355D01*
X264175Y96362D01*
X264155Y96369D01*
X264132Y96375D01*
X264103Y96385D01*
X264070Y96398D01*
X264037Y96415D01*
X263962Y96447D01*
X263883Y96490D01*
X263804Y96539D01*
X263729Y96595D01*
X263725Y96592D01*
X263716Y96582D01*
X263703Y96565D01*
X263683Y96546D01*
X263660Y96516D01*
X263634Y96480D01*
X263607Y96441D01*
X263581Y96392D01*
X263555Y96339D01*
X263525Y96280D01*
X263503Y96214D01*
X263479Y96142D01*
X263460Y96064D01*
X263447Y95978D01*
X263437Y95886D01*
X263434Y95788D01*
Y95785D01*
Y95775D01*
Y95759D01*
Y95736D01*
X263437Y95709D01*
X263440Y95680D01*
X263443Y95644D01*
X263447Y95608D01*
X263460Y95522D01*
X263476Y95434D01*
X263503Y95342D01*
X263539Y95253D01*
Y95250D01*
X263542Y95244D01*
X263548Y95231D01*
X263558Y95214D01*
X263568Y95198D01*
X263581Y95175D01*
X263617Y95122D01*
X263660Y95066D01*
X263712Y95007D01*
X263771Y94952D01*
X263844Y94899D01*
X263847D01*
X263853Y94893D01*
X263863Y94886D01*
X263880Y94880D01*
X263896Y94870D01*
X263919Y94860D01*
X263945Y94847D01*
X263975Y94834D01*
X264040Y94811D01*
X264116Y94791D01*
X264201Y94778D01*
X264293Y94771D01*
X264329D01*
X264355Y94775D01*
X264388Y94778D01*
X264424Y94784D01*
X264467Y94794D01*
X264509Y94804D01*
X264559Y94817D01*
X264608Y94834D01*
X264660Y94853D01*
X264713Y94880D01*
X264765Y94909D01*
X264814Y94942D01*
X264864Y94981D01*
X264913Y95027D01*
X264916Y95030D01*
X264923Y95040D01*
X264936Y95053D01*
X264952Y95076D01*
X264969Y95103D01*
X264988Y95135D01*
X265011Y95175D01*
X265034Y95217D01*
X265057Y95270D01*
X265080Y95326D01*
X265100Y95388D01*
X265116Y95457D01*
X265133Y95529D01*
X265146Y95611D01*
X265152Y95696D01*
X265156Y95788D01*
Y95795D01*
Y95811D01*
X265152Y95834D01*
Y95870D01*
X265149Y95909D01*
X265142Y95959D01*
X265136Y96011D01*
X265126Y96067D01*
X265113Y96126D01*
X265097Y96188D01*
X265077Y96251D01*
X265054Y96313D01*
X265024Y96375D01*
X264992Y96434D01*
X264955Y96490D01*
X264913Y96543D01*
X264910Y96546D01*
X264903Y96552D01*
X264887Y96565D01*
X264870Y96582D01*
X264844Y96605D01*
X264814Y96624D01*
X264782Y96651D01*
X264746Y96674D01*
X264703Y96697D01*
X264654Y96723D01*
X264605Y96743D01*
X264549Y96762D01*
X264490Y96782D01*
X264427Y96795D01*
X264362Y96802D01*
X264293Y96805D01*
D02*
G37*
G36*
X125596Y28305D02*
X125567D01*
X125531Y28302D01*
X125485Y28295D01*
X125435Y28288D01*
X125376Y28279D01*
X125317Y28262D01*
X125258Y28239D01*
X125261D01*
X125265Y28236D01*
X125285Y28223D01*
X125317Y28203D01*
X125360Y28183D01*
X125409Y28161D01*
X125465Y28134D01*
X125524Y28115D01*
X125590Y28095D01*
X125507Y27852D01*
X125504D01*
X125494Y27856D01*
X125478Y27862D01*
X125458Y27869D01*
X125435Y27875D01*
X125406Y27885D01*
X125373Y27898D01*
X125340Y27915D01*
X125265Y27947D01*
X125186Y27990D01*
X125107Y28039D01*
X125032Y28095D01*
X125029Y28092D01*
X125019Y28082D01*
X125006Y28065D01*
X124986Y28046D01*
X124963Y28016D01*
X124937Y27980D01*
X124911Y27941D01*
X124884Y27892D01*
X124858Y27839D01*
X124829Y27780D01*
X124806Y27714D01*
X124783Y27642D01*
X124763Y27564D01*
X124750Y27478D01*
X124740Y27387D01*
X124737Y27288D01*
Y27285D01*
Y27275D01*
Y27259D01*
Y27236D01*
X124740Y27209D01*
X124743Y27180D01*
X124747Y27144D01*
X124750Y27108D01*
X124763Y27022D01*
X124779Y26934D01*
X124806Y26842D01*
X124842Y26753D01*
Y26750D01*
X124845Y26744D01*
X124852Y26730D01*
X124861Y26714D01*
X124871Y26698D01*
X124884Y26675D01*
X124920Y26622D01*
X124963Y26566D01*
X125015Y26507D01*
X125075Y26452D01*
X125147Y26399D01*
X125150D01*
X125157Y26393D01*
X125166Y26386D01*
X125183Y26379D01*
X125199Y26370D01*
X125222Y26360D01*
X125248Y26347D01*
X125278Y26334D01*
X125344Y26311D01*
X125419Y26291D01*
X125504Y26278D01*
X125596Y26271D01*
X125632D01*
X125658Y26275D01*
X125691Y26278D01*
X125727Y26284D01*
X125770Y26294D01*
X125813Y26304D01*
X125862Y26317D01*
X125911Y26334D01*
X125963Y26353D01*
X126016Y26379D01*
X126068Y26409D01*
X126118Y26442D01*
X126167Y26481D01*
X126216Y26527D01*
X126219Y26530D01*
X126226Y26540D01*
X126239Y26553D01*
X126255Y26576D01*
X126272Y26603D01*
X126292Y26635D01*
X126314Y26675D01*
X126337Y26717D01*
X126360Y26770D01*
X126383Y26826D01*
X126403Y26888D01*
X126419Y26957D01*
X126436Y27029D01*
X126449Y27111D01*
X126455Y27196D01*
X126459Y27288D01*
Y27295D01*
Y27311D01*
X126455Y27334D01*
Y27370D01*
X126452Y27409D01*
X126446Y27459D01*
X126439Y27511D01*
X126429Y27567D01*
X126416Y27626D01*
X126400Y27688D01*
X126380Y27751D01*
X126357Y27813D01*
X126328Y27875D01*
X126295Y27934D01*
X126259Y27990D01*
X126216Y28043D01*
X126213Y28046D01*
X126206Y28052D01*
X126190Y28065D01*
X126173Y28082D01*
X126147Y28105D01*
X126118Y28124D01*
X126085Y28151D01*
X126049Y28174D01*
X126006Y28197D01*
X125957Y28223D01*
X125908Y28243D01*
X125852Y28262D01*
X125793Y28282D01*
X125731Y28295D01*
X125665Y28302D01*
X125596Y28305D01*
D02*
G37*
%LPD*%
D11*
X125122Y75590D02*
X147878D01*
Y64410D02*
Y75590D01*
X125122Y64410D02*
X147878D01*
X125122D02*
Y75590D01*
X91378Y57910D02*
Y69090D01*
X68622D02*
X91378D01*
X68622Y57910D02*
Y69090D01*
Y57910D02*
X91378D01*
X255953Y75398D02*
X275047D01*
X255953D02*
Y117602D01*
X275047D01*
Y75398D02*
Y117602D01*
X136350Y6898D02*
Y49102D01*
X117256D02*
X136350D01*
X117256Y6898D02*
Y49102D01*
Y6898D02*
X136350D01*
M02*
