G04*
G04 #@! TF.GenerationSoftware,Altium Limited,Altium Designer,21.9.2 (33)*
G04*
G04 Layer_Color=16711935*
%FSLAX25Y25*%
%MOIN*%
G70*
G04*
G04 #@! TF.SameCoordinates,93054606-FE03-420F-9484-365B998A07D4*
G04*
G04*
G04 #@! TF.FilePolarity,Positive*
G04*
G01*
G75*
%ADD59C,0.00394*%
D59*
X14858Y120685D02*
X47142D01*
X14858Y81315D02*
Y120685D01*
Y81315D02*
X47142D01*
Y120685D01*
X228500Y30020D02*
X288500D01*
Y7500D02*
Y30020D01*
X228500Y7500D02*
Y30020D01*
Y7500D02*
X288500D01*
X149902Y98276D02*
Y107724D01*
X125098Y98276D02*
X149902D01*
X125098Y107724D02*
X149902D01*
X125098Y98276D02*
Y107724D01*
X124598Y83276D02*
Y92724D01*
X149402D01*
X124598Y83276D02*
X149402D01*
Y92724D01*
X14858Y67185D02*
X47142D01*
X14858Y27815D02*
Y67185D01*
Y27815D02*
X47142D01*
Y67185D01*
X267402Y57776D02*
Y67224D01*
X242598Y57776D02*
X267402D01*
X242598Y67224D02*
X267402D01*
X242598Y57776D02*
Y67224D01*
X162000Y30020D02*
X222000D01*
Y7500D02*
Y30020D01*
X162000Y7500D02*
Y30020D01*
Y7500D02*
X222000D01*
X75898Y82028D02*
Y122973D01*
X70780D02*
X88890D01*
X70780Y82028D02*
Y122973D01*
Y82028D02*
X88890D01*
Y82028D02*
Y122973D01*
X285189Y50472D02*
X308811D01*
X310386D02*
X313339D01*
X308319Y48110D02*
X308811Y50472D01*
X310386D02*
X310878Y48110D01*
X308319D02*
X310878D01*
X280661Y50472D02*
X283614D01*
X283122Y48110D02*
X283614Y50472D01*
X285189D02*
X285681Y48110D01*
X283122D02*
X285681D01*
X280661Y109528D02*
X313339D01*
Y50472D02*
Y109528D01*
X280661Y50472D02*
Y109528D01*
X234276Y110402D02*
X243724D01*
Y85598D02*
Y110402D01*
X234276Y85598D02*
Y110402D01*
Y85598D02*
X243724D01*
X307500Y244000D02*
Y364000D01*
X297500Y244000D02*
Y364000D01*
X307500D01*
X297500Y244000D02*
X307500D01*
X145276Y40402D02*
X154724D01*
Y15598D02*
Y40402D01*
X145276Y15598D02*
Y40402D01*
Y15598D02*
X154724D01*
M02*
