M48
;Layer_Color=9474304
;FILE_FORMAT=2:4
INCH,TZ
;TYPE=PLATED
T1F00S00C0.0197
T2F00S00C0.0276
T3F00S00C0.0315
T4F00S00C0.0335
T5F00S00C0.0354
T6F00S00C0.0402
T7F00S00C0.0433
T8F00S00C0.0450
T9F00S00C0.0512
T10F00S00C0.0531
T11F00S00C0.1378
%
T01
X15550Y11650
X16640Y12772
X17800Y8250
X17450Y4500
X15950
X22691Y6561
X23063Y12963
X26387Y28551
X15300Y17600
T02
X6950Y3750
X7950
X8950
X9900Y10650
Y13650
X6000Y11700
Y8700
T03
X10450Y6866
X10450Y8834
T04
X15000Y1028
Y4572
X15472Y8800
X15522Y10300
X11978
X11928Y8800
X23900Y8028
X23728Y6250
X27272
X23900Y11572
T05
X29850Y13700
X30850
Y14700
X29850
Y15700
X30850
Y19550
X29850
Y20550
X30850
Y21550
X29850
X3050Y21750
Y20750
Y19750
Y18750
Y17750
Y16750
X2050
Y17750
Y18750
Y19750
Y20750
Y21750
Y22750
X3050
Y23750
Y24750
Y25750
Y26750
Y27750
Y28750
Y29750
Y30750
X2050
Y29750
Y28750
Y27750
Y26750
Y25750
Y24750
Y23750
Y31750
X3050
Y32750
Y33750
Y34750
Y35750
X2050
Y34750
Y33750
Y32750
X17450Y37000
Y38000
X18450
Y37000
X19450
Y38000
T06
X7500Y6350
X8500
X13150Y7000
X14150
T07
X3100Y3766
Y5734
Y9116
Y11084
X8200Y11250
Y10250
Y9250
X30250Y24900
Y25900
Y26900
Y27900
Y28900
Y29900
Y30900
Y31900
Y32900
Y33900
Y34900
Y35900
T08
X23550Y15495
X24550
Y16495
X23550
Y17495
Y18495
Y19495
X24550
Y18495
Y17495
Y20495
X23550
Y21495
Y22495
Y23495
Y24495
Y25495
Y26495
Y27495
Y28495
Y29495
Y30495
X24550
Y29495
Y28495
Y27495
Y26495
Y25495
Y24495
Y23495
Y22495
Y21495
X11550
X10550
Y20495
X11550
Y22495
X10550
Y23495
Y24495
Y25495
Y26495
Y27495
Y28495
Y29495
Y30495
X11550
Y29495
Y28495
Y27495
Y26495
Y25495
Y24495
Y23495
Y31495
X10550
Y32495
Y33495
Y34495
Y35495
X11550
Y34495
Y33495
Y32495
X12550Y34495
Y35495
X13550
X14550
Y34495
X13550
X17550
Y35495
X18550
X19550
Y34495
X18550
X23550
Y35495
X24550
Y34495
Y33495
X23550
Y32495
Y31495
X24550
Y32495
T09
X16700Y2000
X17700
X18700
X19700
X20700
X21700
X23350
X24350
X25350
X26350
X27350
X28350
X29700Y6032
Y8000
Y9969
T10
X12950Y1800
Y2800
Y3800
X26820Y8650
Y9650
Y10650
T11
X2350Y1250
X31800
X2350Y37850
X31800
M30
