G04*
G04 #@! TF.GenerationSoftware,Altium Limited,Altium Designer,21.9.2 (33)*
G04*
G04 Layer_Color=65535*
%FSLAX25Y25*%
%MOIN*%
G70*
G04*
G04 #@! TF.SameCoordinates,93054606-FE03-420F-9484-365B998A07D4*
G04*
G04*
G04 #@! TF.FilePolarity,Positive*
G04*
G01*
G75*
%ADD10C,0.00984*%
%ADD11C,0.00787*%
%ADD12C,0.01000*%
%ADD13C,0.00800*%
%ADD14C,0.00600*%
D10*
X50193Y110843D02*
G03*
X50193Y110843I-492J0D01*
G01*
Y57342D02*
G03*
X50193Y57342I-492J0D01*
G01*
X123508Y70000D02*
G03*
X123508Y70000I-492J0D01*
G01*
X93976Y63500D02*
G03*
X93976Y63500I-492J0D01*
G01*
X86823Y84587D02*
G03*
X86823Y84587I-492J0D01*
G01*
X265992Y73823D02*
G03*
X265992Y73823I-492J0D01*
G01*
X127295Y5323D02*
G03*
X127295Y5323I-492J0D01*
G01*
D11*
X107774Y71339D02*
G03*
X108732Y85140I-3274J7161D01*
G01*
X100268D02*
G03*
X101226Y71339I4232J-6640D01*
G01*
X293500Y162000D02*
X313500D01*
X293500Y132000D02*
X313500D01*
X293500D02*
Y162000D01*
X313500Y132000D02*
Y162000D01*
Y142833D02*
Y162000D01*
X91500Y99000D02*
Y144000D01*
Y99000D02*
X106500D01*
Y144000D01*
X91500D02*
X106500D01*
X14858Y81315D02*
Y123047D01*
Y81315D02*
X47142D01*
Y123047D01*
X14858D02*
X47142D01*
X67500Y79500D02*
Y124500D01*
X52500D02*
X67500D01*
X52500Y79500D02*
Y124500D01*
Y79500D02*
X67500D01*
X228500Y7500D02*
X288500D01*
X228500D02*
Y30020D01*
X288500Y7500D02*
Y30020D01*
X228500D02*
X288500D01*
X125098Y98276D02*
Y107724D01*
X149902D01*
X125098Y98276D02*
X149902D01*
Y107724D01*
X149402Y83276D02*
Y92724D01*
X124598Y83276D02*
X149402D01*
X124598Y92724D02*
X149402D01*
X124598Y83276D02*
Y92724D01*
X14858Y27815D02*
Y69547D01*
Y27815D02*
X47142D01*
Y69547D01*
X14858D02*
X47142D01*
X242598Y57776D02*
Y67224D01*
X267402D01*
X242598Y57776D02*
X267402D01*
Y67224D01*
X293500Y220500D02*
X313500D01*
X293500Y190500D02*
X313500D01*
X293500D02*
Y220500D01*
X313500Y190500D02*
Y220500D01*
Y201333D02*
Y220500D01*
X199500Y365000D02*
Y385000D01*
X169500Y365000D02*
Y385000D01*
X199500D01*
X169500Y365000D02*
X199500D01*
X180333D02*
X199500D01*
X162000Y7500D02*
X222000D01*
X162000D02*
Y30020D01*
X222000Y7500D02*
Y30020D01*
X162000D02*
X222000D01*
X125516Y75197D02*
X147484D01*
Y64803D02*
Y75197D01*
X125516Y64803D02*
X147484D01*
X125516D02*
Y75197D01*
X90984Y58303D02*
Y68697D01*
X69016D02*
X90984D01*
X69016Y58303D02*
Y68697D01*
Y58303D02*
X90984D01*
X59500Y27500D02*
X99500D01*
X59500D02*
Y37500D01*
X54500D02*
X59500D01*
X54500D02*
Y47500D01*
X99500D01*
Y27500D02*
Y47500D01*
X70780Y82028D02*
Y122973D01*
X88890D01*
Y82028D02*
Y122973D01*
X70780Y82028D02*
X88890D01*
X72748Y82028D02*
Y122973D01*
X274654Y79933D02*
Y113067D01*
X256347Y117209D02*
X274654Y113067D01*
X256347Y75988D02*
Y117012D01*
Y75791D02*
X274654Y79933D01*
X280661Y50472D02*
Y109528D01*
X313339Y50472D02*
Y109528D01*
X280661D02*
X313339D01*
X283122Y48110D02*
X285681D01*
X285189Y50472D02*
X285681Y48110D01*
X283122D02*
X283614Y50472D01*
X280661D02*
X283614D01*
X308319Y48110D02*
X310878D01*
X310386Y50472D02*
X310878Y48110D01*
X308319D02*
X308811Y50472D01*
X310386D02*
X313339D01*
X285189D02*
X308811D01*
X234276Y85598D02*
X243724D01*
X234276D02*
Y110402D01*
X243724Y85598D02*
Y110402D01*
X234276D02*
X243724D01*
X117650Y7291D02*
X135957Y11433D01*
X117650Y7488D02*
Y48512D01*
Y48709D02*
X135957Y44567D01*
Y11433D02*
Y44567D01*
X297205Y243409D02*
X307795D01*
Y364591D01*
X297205D02*
X307795D01*
X297205Y243409D02*
Y364591D01*
X145276Y15598D02*
X154724D01*
X145276D02*
Y40402D01*
X154724Y15598D02*
Y40402D01*
X145276D02*
X154724D01*
D12*
X100624Y360679D02*
X250418D01*
X100624D02*
X100699D01*
Y147865D02*
Y360679D01*
Y147865D02*
X250418D01*
Y360679D01*
X289596Y216996D02*
Y212998D01*
Y214997D01*
X283598D01*
X289596Y210998D02*
X284597D01*
X283598Y209999D01*
Y207999D01*
X284597Y207000D01*
X289596D01*
X283598Y205000D02*
X289596D01*
Y202001D01*
X288596Y201002D01*
X286597D01*
X285597Y202001D01*
Y205000D01*
Y203001D02*
X283598Y201002D01*
Y199002D02*
X289596D01*
X283598Y195003D01*
X289596D01*
X278998Y223994D02*
X279998Y224994D01*
Y226993D01*
X278998Y227993D01*
X277999D01*
X276999Y226993D01*
Y224994D01*
X275999Y223994D01*
X275000D01*
X274000Y224994D01*
Y226993D01*
X275000Y227993D01*
X279998Y221995D02*
Y219995D01*
Y220995D01*
X274000D01*
Y221995D01*
Y219995D01*
X278998Y212998D02*
X279998Y213997D01*
Y215997D01*
X278998Y216996D01*
X275000D01*
X274000Y215997D01*
Y213997D01*
X275000Y212998D01*
X276999D01*
Y214997D01*
X279998Y205000D02*
X275000D01*
X274000Y204001D01*
Y202001D01*
X275000Y201002D01*
X279998D01*
X274000Y199002D02*
X279998D01*
X274000Y195003D01*
X279998D01*
Y193004D02*
Y191005D01*
Y192005D01*
X274000D01*
Y193004D01*
Y191005D01*
X279998Y188006D02*
Y184007D01*
Y186006D01*
X274000D01*
X289096Y162995D02*
X290096Y163995D01*
Y165994D01*
X289096Y166994D01*
X288096D01*
X287097Y165994D01*
Y163995D01*
X286097Y162995D01*
X285097D01*
X284098Y163995D01*
Y165994D01*
X285097Y166994D01*
X290096Y160996D02*
X284098D01*
X287097D01*
Y156997D01*
X290096D01*
X284098D01*
X290096Y154998D02*
Y152998D01*
Y153998D01*
X284098D01*
Y154998D01*
Y152998D01*
X290096Y146001D02*
Y149999D01*
X287097D01*
Y148000D01*
Y149999D01*
X284098D01*
X290096Y144001D02*
Y140002D01*
Y142002D01*
X284098D01*
X290096Y134004D02*
Y138003D01*
X284098D01*
Y134004D01*
X287097Y138003D02*
Y136004D01*
X284098Y132005D02*
X290096D01*
Y129006D01*
X289096Y128006D01*
X287097D01*
X286097Y129006D01*
Y132005D01*
Y130006D02*
X284098Y128006D01*
X280498Y157997D02*
X275500D01*
X274500Y156997D01*
Y154998D01*
X275500Y153998D01*
X280498D01*
X274500Y151998D02*
X280498D01*
X274500Y148000D01*
X280498D01*
Y146001D02*
Y144001D01*
Y145001D01*
X274500D01*
Y146001D01*
Y144001D01*
X280498Y141002D02*
Y137003D01*
Y139003D01*
X274500D01*
X290498Y344487D02*
X284500D01*
X287499D01*
Y340488D01*
X290498D01*
X284500D01*
X290498Y335490D02*
Y337489D01*
X289498Y338489D01*
X285500D01*
X284500Y337489D01*
Y335490D01*
X285500Y334490D01*
X289498D01*
X290498Y335490D01*
X284500Y332491D02*
X290498D01*
Y329492D01*
X289498Y328492D01*
X287499D01*
X286499Y329492D01*
Y332491D01*
Y330491D02*
X284500Y328492D01*
Y326493D02*
X290498D01*
X284500Y322494D01*
X290498D01*
Y314497D02*
Y312497D01*
Y313497D01*
X284500D01*
Y314497D01*
Y312497D01*
Y309498D02*
X290498D01*
X284500Y305500D01*
X290498D01*
Y303500D02*
Y299501D01*
Y301501D01*
X284500D01*
X290498Y293503D02*
Y297502D01*
X284500D01*
Y293503D01*
X287499Y297502D02*
Y295503D01*
X284500Y291504D02*
X290498D01*
Y288505D01*
X289498Y287505D01*
X287499D01*
X286499Y288505D01*
Y291504D01*
Y289505D02*
X284500Y287505D01*
X290498Y281507D02*
Y285506D01*
X287499D01*
Y283507D01*
Y285506D01*
X284500D01*
Y279508D02*
X288499D01*
X290498Y277509D01*
X288499Y275509D01*
X284500D01*
X287499D01*
Y279508D01*
X289498Y269511D02*
X290498Y270511D01*
Y272510D01*
X289498Y273510D01*
X285500D01*
X284500Y272510D01*
Y270511D01*
X285500Y269511D01*
X290498Y263513D02*
Y267512D01*
X284500D01*
Y263513D01*
X287499Y267512D02*
Y265512D01*
X301500Y175999D02*
X299501D01*
X300501D01*
Y171001D01*
X299501Y170001D01*
X298501D01*
X297502Y171001D01*
X306499Y170001D02*
Y175999D01*
X303500Y173000D01*
X307498D01*
X90500Y152499D02*
X89501Y153499D01*
X87501D01*
X86502Y152499D01*
Y148501D01*
X87501Y147501D01*
X89501D01*
X90500Y148501D01*
X96498Y147501D02*
X92500D01*
X96498Y151500D01*
Y152499D01*
X95499Y153499D01*
X93499D01*
X92500Y152499D01*
X18499Y76498D02*
X17499Y77498D01*
X15500D01*
X14500Y76498D01*
Y75499D01*
X15500Y74499D01*
X17499D01*
X18499Y73499D01*
Y72500D01*
X17499Y71500D01*
X15500D01*
X14500Y72500D01*
X20498Y71500D02*
Y77498D01*
X23497D01*
X24497Y76498D01*
Y74499D01*
X23497Y73499D01*
X20498D01*
X30495Y77498D02*
X26496D01*
Y71500D01*
X30495D01*
X26496Y74499D02*
X28495D01*
X32494Y71500D02*
Y75499D01*
X34493Y77498D01*
X36493Y75499D01*
Y71500D01*
Y74499D01*
X32494D01*
X38492Y77498D02*
Y71500D01*
Y73499D01*
X42491Y77498D01*
X39492Y74499D01*
X42491Y71500D01*
X48489Y77498D02*
X44490D01*
Y71500D01*
X48489D01*
X44490Y74499D02*
X46490D01*
X50488Y71500D02*
Y77498D01*
X53487D01*
X54487Y76498D01*
Y74499D01*
X53487Y73499D01*
X50488D01*
X52488D02*
X54487Y71500D01*
X20500Y143499D02*
X18501D01*
X19501D01*
Y138501D01*
X18501Y137501D01*
X17501D01*
X16502Y138501D01*
X22500D02*
X23499Y137501D01*
X25499D01*
X26498Y138501D01*
Y142499D01*
X25499Y143499D01*
X23499D01*
X22500Y142499D01*
Y141500D01*
X23499Y140500D01*
X26498D01*
X58000Y132499D02*
X57001Y133499D01*
X55001D01*
X54002Y132499D01*
Y128501D01*
X55001Y127501D01*
X57001D01*
X58000Y128501D01*
X60000Y132499D02*
X60999Y133499D01*
X62999D01*
X63998Y132499D01*
Y131500D01*
X62999Y130500D01*
X61999D01*
X62999D01*
X63998Y129500D01*
Y128501D01*
X62999Y127501D01*
X60999D01*
X60000Y128501D01*
X323998Y100501D02*
X324998Y101501D01*
Y103500D01*
X323998Y104500D01*
X322999D01*
X321999Y103500D01*
Y101501D01*
X320999Y100501D01*
X320000D01*
X319000Y101501D01*
Y103500D01*
X320000Y104500D01*
X324998Y98502D02*
Y94503D01*
Y96503D01*
X319000D01*
Y92504D02*
X322999D01*
X324998Y90504D01*
X322999Y88505D01*
X319000D01*
X321999D01*
Y92504D01*
X319000Y86506D02*
X324998D01*
Y83507D01*
X323998Y82507D01*
X321999D01*
X320999Y83507D01*
Y86506D01*
Y84506D02*
X319000Y82507D01*
X324998Y80508D02*
Y76509D01*
Y78508D01*
X319000D01*
X324998Y68512D02*
X319000D01*
Y65513D01*
X320000Y64513D01*
X320999D01*
X321999Y65513D01*
Y68512D01*
Y65513D01*
X322999Y64513D01*
X323998D01*
X324998Y65513D01*
Y68512D01*
Y62514D02*
Y58515D01*
Y60514D01*
X319000D01*
Y56516D02*
X324998D01*
X319000Y52517D01*
X324998D01*
X277501Y38999D02*
X275502D01*
X276501D01*
Y34001D01*
X275502Y33001D01*
X274502D01*
X273502Y34001D01*
X279501Y33001D02*
X281500D01*
X280500D01*
Y38999D01*
X279501Y37999D01*
X288498Y33001D02*
X284499D01*
X288498Y37000D01*
Y37999D01*
X287498Y38999D01*
X285498D01*
X284499Y37999D01*
X185000Y34000D02*
Y37999D01*
X186999Y39998D01*
X188999Y37999D01*
Y34000D01*
Y36999D01*
X185000D01*
X190998Y39998D02*
Y35000D01*
X191998Y34000D01*
X193997D01*
X194997Y35000D01*
Y39998D01*
X196996D02*
X200995Y34000D01*
Y39998D02*
X196996Y34000D01*
X202994Y39998D02*
X204994D01*
X203994D01*
Y34000D01*
X202994D01*
X204994D01*
X207993Y39998D02*
Y34000D01*
X211991D01*
X213991Y39998D02*
X215990D01*
X214990D01*
Y34000D01*
X213991D01*
X215990D01*
X218989D02*
Y37999D01*
X220988Y39998D01*
X222988Y37999D01*
Y34000D01*
Y36999D01*
X218989D01*
X224987Y34000D02*
Y39998D01*
X227986D01*
X228986Y38998D01*
Y36999D01*
X227986Y35999D01*
X224987D01*
X226986D02*
X228986Y34000D01*
X230985Y39998D02*
Y38998D01*
X232984Y36999D01*
X234984Y38998D01*
Y39998D01*
X232984Y36999D02*
Y34000D01*
X242981D02*
Y39998D01*
X245980D01*
X246980Y38998D01*
Y36999D01*
X245980Y35999D01*
X242981D01*
X248979Y39998D02*
X250979D01*
X249979D01*
Y34000D01*
X248979D01*
X250979D01*
X253978D02*
Y39998D01*
X257976Y34000D01*
Y39998D01*
X263974Y38998D02*
X262975Y39998D01*
X260975D01*
X259976Y38998D01*
Y37999D01*
X260975Y36999D01*
X262975D01*
X263974Y35999D01*
Y35000D01*
X262975Y34000D01*
X260975D01*
X259976Y35000D01*
X16500Y128000D02*
Y133998D01*
X19499D01*
X20499Y132998D01*
Y130999D01*
X19499Y129999D01*
X16500D01*
X25497Y133998D02*
X23498D01*
X22498Y132998D01*
Y129000D01*
X23498Y128000D01*
X25497D01*
X26497Y129000D01*
Y132998D01*
X25497Y133998D01*
X28496D02*
Y128000D01*
X30496Y129999D01*
X32495Y128000D01*
Y133998D01*
X38493D02*
X34494D01*
Y128000D01*
X38493D01*
X34494Y130999D02*
X36494D01*
X40492Y128000D02*
Y133998D01*
X43491D01*
X44491Y132998D01*
Y130999D01*
X43491Y129999D01*
X40492D01*
X42492D02*
X44491Y128000D01*
X146000Y377998D02*
X147999D01*
X147000D01*
Y372000D01*
X146000D01*
X147999D01*
X154997Y376998D02*
X153997Y377998D01*
X151998D01*
X150998Y376998D01*
Y375999D01*
X151998Y374999D01*
X153997D01*
X154997Y373999D01*
Y373000D01*
X153997Y372000D01*
X151998D01*
X150998Y373000D01*
X156996Y372000D02*
Y377998D01*
X159995D01*
X160995Y376998D01*
Y374999D01*
X159995Y373999D01*
X156996D01*
X40002Y217000D02*
X46000D01*
Y219999D01*
X45000Y220999D01*
X41002D01*
X40002Y219999D01*
Y217000D01*
Y222998D02*
Y224997D01*
Y223998D01*
X46000D01*
Y222998D01*
Y224997D01*
X41002Y231995D02*
X40002Y230995D01*
Y228996D01*
X41002Y227996D01*
X42001D01*
X43001Y228996D01*
Y230995D01*
X44001Y231995D01*
X45000D01*
X46000Y230995D01*
Y228996D01*
X45000Y227996D01*
X46000Y233995D02*
X40002D01*
Y236994D01*
X41002Y237993D01*
X43001D01*
X44001Y236994D01*
Y233995D01*
X40002Y239993D02*
X46000D01*
Y243991D01*
Y245991D02*
X42001D01*
X40002Y247990D01*
X42001Y249989D01*
X46000D01*
X43001D01*
Y245991D01*
X40002Y251989D02*
X41002D01*
X43001Y253988D01*
X41002Y255987D01*
X40002D01*
X43001Y253988D02*
X46000D01*
X41002Y267984D02*
X40002Y266984D01*
Y264984D01*
X41002Y263985D01*
X45000D01*
X46000Y264984D01*
Y266984D01*
X45000Y267984D01*
X40002Y272982D02*
Y270983D01*
X41002Y269983D01*
X45000D01*
X46000Y270983D01*
Y272982D01*
X45000Y273982D01*
X41002D01*
X40002Y272982D01*
X46000Y275981D02*
X40002D01*
X46000Y279980D01*
X40002D01*
X46000Y281979D02*
X40002D01*
X46000Y285978D01*
X40002D01*
Y291976D02*
Y287977D01*
X46000D01*
Y291976D01*
X43001Y287977D02*
Y289976D01*
X41002Y297974D02*
X40002Y296974D01*
Y294975D01*
X41002Y293975D01*
X45000D01*
X46000Y294975D01*
Y296974D01*
X45000Y297974D01*
X40002Y299973D02*
Y303972D01*
Y301973D01*
X46000D01*
X40002Y308970D02*
Y306971D01*
X41002Y305971D01*
X45000D01*
X46000Y306971D01*
Y308970D01*
X45000Y309970D01*
X41002D01*
X40002Y308970D01*
X46000Y311969D02*
X40002D01*
Y314968D01*
X41002Y315968D01*
X43001D01*
X44001Y314968D01*
Y311969D01*
Y313969D02*
X46000Y315968D01*
X161502Y100001D02*
Y105999D01*
X164501D01*
X165500Y104999D01*
Y103000D01*
X164501Y102000D01*
X161502D01*
X163501D02*
X165500Y100001D01*
X171498Y105999D02*
X167500D01*
Y103000D01*
X169499Y104000D01*
X170499D01*
X171498Y103000D01*
Y101001D01*
X170499Y100001D01*
X168499D01*
X167500Y101001D01*
X162002Y85001D02*
Y90999D01*
X165001D01*
X166000Y89999D01*
Y88000D01*
X165001Y87000D01*
X162002D01*
X164001D02*
X166000Y85001D01*
X170999D02*
Y90999D01*
X168000Y88000D01*
X171998D01*
X104500Y61999D02*
X103500Y62999D01*
X101501D01*
X100501Y61999D01*
Y58001D01*
X101501Y57001D01*
X103500D01*
X104500Y58001D01*
X106499Y57001D02*
X108499D01*
X107499D01*
Y62999D01*
X106499Y61999D01*
X41500Y22499D02*
X39501D01*
X40501D01*
Y17501D01*
X39501Y16501D01*
X38501D01*
X37502Y17501D01*
X43500Y21499D02*
X44499Y22499D01*
X46499D01*
X47498Y21499D01*
Y20500D01*
X46499Y19500D01*
X47498Y18500D01*
Y17501D01*
X46499Y16501D01*
X44499D01*
X43500Y17501D01*
Y18500D01*
X44499Y19500D01*
X43500Y20500D01*
Y21499D01*
X44499Y19500D02*
X46499D01*
X248002Y48501D02*
Y54499D01*
X251001D01*
X252000Y53499D01*
Y51500D01*
X251001Y50500D01*
X248002D01*
X250001D02*
X252000Y48501D01*
X257998D02*
X254000D01*
X257998Y52500D01*
Y53499D01*
X256999Y54499D01*
X254999D01*
X254000Y53499D01*
X301000Y235499D02*
X299001D01*
X300001D01*
Y230501D01*
X299001Y229501D01*
X298001D01*
X297002Y230501D01*
X306998Y235499D02*
X303000D01*
Y232500D01*
X304999Y233500D01*
X305999D01*
X306998Y232500D01*
Y230501D01*
X305999Y229501D01*
X303999D01*
X303000Y230501D01*
X32000Y158999D02*
X30001D01*
X31001D01*
Y154001D01*
X30001Y153001D01*
X29001D01*
X28002Y154001D01*
X37998Y153001D02*
X34000D01*
X37998Y157000D01*
Y157999D01*
X36999Y158999D01*
X34999D01*
X34000Y157999D01*
X19500Y158999D02*
X17501D01*
X18500D01*
Y154001D01*
X17501Y153001D01*
X16501D01*
X15501Y154001D01*
X21499Y153001D02*
X23499D01*
X22499D01*
Y158999D01*
X21499Y157999D01*
X212001Y377999D02*
X210002D01*
X211001D01*
Y373001D01*
X210002Y372001D01*
X209002D01*
X208002Y373001D01*
X214001Y372001D02*
X216000D01*
X215000D01*
Y377999D01*
X214001Y376999D01*
X218999D02*
X219999Y377999D01*
X221998D01*
X222998Y376999D01*
Y376000D01*
X221998Y375000D01*
X220998D01*
X221998D01*
X222998Y374000D01*
Y373001D01*
X221998Y372001D01*
X219999D01*
X218999Y373001D01*
X101100Y370298D02*
Y365300D01*
X102100Y364300D01*
X104099D01*
X105099Y365300D01*
Y370298D01*
X107098Y364300D02*
X109097D01*
X108098D01*
Y370298D01*
X107098Y369298D01*
X166499Y39498D02*
X164499D01*
X165499D01*
Y34500D01*
X164499Y33500D01*
X163500D01*
X162500Y34500D01*
X168498Y33500D02*
X170497D01*
X169498D01*
Y39498D01*
X168498Y38498D01*
X173496Y33500D02*
X175496D01*
X174496D01*
Y39498D01*
X173496Y38498D01*
X158000Y72499D02*
X156001D01*
X157001D01*
Y67501D01*
X156001Y66501D01*
X155001D01*
X154002Y67501D01*
X163998Y72499D02*
X161999Y71499D01*
X160000Y69500D01*
Y67501D01*
X160999Y66501D01*
X162999D01*
X163998Y67501D01*
Y68500D01*
X162999Y69500D01*
X160000D01*
X55001Y66499D02*
X53002D01*
X54001D01*
Y61501D01*
X53002Y60501D01*
X52002D01*
X51002Y61501D01*
X57000Y60501D02*
X59000D01*
X58000D01*
Y66499D01*
X57000Y65499D01*
X61999D02*
X62999Y66499D01*
X64998D01*
X65998Y65499D01*
Y61501D01*
X64998Y60501D01*
X62999D01*
X61999Y61501D01*
Y65499D01*
X103002Y35501D02*
Y41499D01*
X106001D01*
X107000Y40499D01*
Y38500D01*
X106001Y37500D01*
X103002D01*
X105001D02*
X107000Y35501D01*
X112998Y41499D02*
X110999Y40499D01*
X109000Y38500D01*
Y36501D01*
X109999Y35501D01*
X111999D01*
X112998Y36501D01*
Y37500D01*
X111999Y38500D01*
X109000D01*
X75002Y132999D02*
Y128001D01*
X76001Y127001D01*
X78001D01*
X79000Y128001D01*
Y132999D01*
X84998Y127001D02*
X81000D01*
X84998Y131000D01*
Y131999D01*
X83999Y132999D01*
X81999D01*
X81000Y131999D01*
X263000Y123001D02*
Y126999D01*
X262001Y127999D01*
X260001D01*
X259002Y126999D01*
Y123001D01*
X260001Y122001D01*
X262001D01*
X261001Y124000D02*
X263000Y122001D01*
X262001D02*
X263000Y123001D01*
X268998Y122001D02*
X265000D01*
X268998Y126000D01*
Y126999D01*
X267999Y127999D01*
X265999D01*
X265000Y126999D01*
X296000Y43314D02*
X294001D01*
X295001D01*
Y38316D01*
X294001Y37316D01*
X293001D01*
X292002Y38316D01*
X298000Y43314D02*
X301998D01*
Y42314D01*
X298000Y38316D01*
Y37316D01*
X234800Y121900D02*
Y127898D01*
X237799D01*
X238799Y126898D01*
Y124899D01*
X237799Y123899D01*
X234800D01*
X236799D02*
X238799Y121900D01*
X240798Y126898D02*
X241798Y127898D01*
X243797D01*
X244797Y126898D01*
Y125899D01*
X243797Y124899D01*
X242797D01*
X243797D01*
X244797Y123899D01*
Y122900D01*
X243797Y121900D01*
X241798D01*
X240798Y122900D01*
X145800Y51900D02*
Y57898D01*
X148799D01*
X149799Y56898D01*
Y54899D01*
X148799Y53899D01*
X145800D01*
X147799D02*
X149799Y51900D01*
X151798D02*
X153797D01*
X152798D01*
Y57898D01*
X151798Y56898D01*
X121899Y53500D02*
Y57498D01*
X120899Y58498D01*
X118900D01*
X117900Y57498D01*
Y53500D01*
X118900Y52500D01*
X120899D01*
X119899Y54499D02*
X121899Y52500D01*
X120899D02*
X121899Y53500D01*
X123898Y52500D02*
X125897D01*
X124898D01*
Y58498D01*
X123898Y57498D01*
X301299Y374498D02*
X299299D01*
X300299D01*
Y369500D01*
X299299Y368500D01*
X298300D01*
X297300Y369500D01*
X303298Y373498D02*
X304298Y374498D01*
X306297D01*
X307297Y373498D01*
Y372499D01*
X306297Y371499D01*
X305297D01*
X306297D01*
X307297Y370499D01*
Y369500D01*
X306297Y368500D01*
X304298D01*
X303298Y369500D01*
D13*
X295502Y167332D02*
X296335Y165666D01*
X298001Y164000D01*
X299667D01*
X300500Y164833D01*
Y166499D01*
X299667Y167332D01*
X298834D01*
X298001Y166499D01*
Y164000D01*
X305502Y167332D02*
Y164000D01*
X308001D01*
X307168Y165666D01*
Y166499D01*
X308001Y167332D01*
X309667D01*
X310500Y166499D01*
Y164833D01*
X309667Y164000D01*
X300500Y130332D02*
Y127000D01*
X297168Y130332D01*
X296335D01*
X295502Y129499D01*
Y127833D01*
X296335Y127000D01*
X310500Y129000D02*
Y130666D01*
Y129833D01*
X305502D01*
X306335Y129000D01*
X295502Y226332D02*
X296335Y224666D01*
X298001Y223000D01*
X299667D01*
X300500Y223833D01*
Y225499D01*
X299667Y226332D01*
X298834D01*
X298001Y225499D01*
Y223000D01*
X305502Y226332D02*
Y223000D01*
X308001D01*
X307168Y224666D01*
Y225499D01*
X308001Y226332D01*
X309667D01*
X310500Y225499D01*
Y223833D01*
X309667Y223000D01*
X300500Y188832D02*
Y185500D01*
X297168Y188832D01*
X296335D01*
X295502Y187999D01*
Y186333D01*
X296335Y185500D01*
X310500Y187500D02*
Y189166D01*
Y188333D01*
X305502D01*
X306335Y187500D01*
X205332Y382998D02*
X203666Y382165D01*
X202000Y380499D01*
Y378833D01*
X202833Y378000D01*
X204499D01*
X205332Y378833D01*
Y379666D01*
X204499Y380499D01*
X202000D01*
X205332Y372998D02*
X202000D01*
Y370499D01*
X203666Y371332D01*
X204499D01*
X205332Y370499D01*
Y368833D01*
X204499Y368000D01*
X202833D01*
X202000Y368833D01*
X166832Y378000D02*
X163500D01*
X166832Y381332D01*
Y382165D01*
X165999Y382998D01*
X164333D01*
X163500Y382165D01*
X165500Y368000D02*
X167166D01*
X166333D01*
Y372998D01*
X165500Y372165D01*
D14*
X309193Y251480D02*
Y250147D01*
Y250814D01*
X313192D01*
X312525Y251480D01*
X309193Y245482D02*
Y248148D01*
X311859Y245482D01*
X312525D01*
X313192Y246149D01*
Y247482D01*
X312525Y248148D01*
X309193Y359472D02*
Y358139D01*
Y358806D01*
X313192D01*
X312525Y359472D01*
M02*
