G04*
G04 #@! TF.GenerationSoftware,Altium Limited,Altium Designer,21.9.2 (33)*
G04*
G04 Layer_Physical_Order=1*
G04 Layer_Color=255*
%FSLAX25Y25*%
%MOIN*%
G70*
G04*
G04 #@! TF.SameCoordinates,93054606-FE03-420F-9484-365B998A07D4*
G04*
G04*
G04 #@! TF.FilePolarity,Positive*
G04*
G01*
G75*
%ADD12C,0.01000*%
%ADD28R,0.06181X0.06181*%
%ADD29C,0.06181*%
%ADD33R,0.08071X0.08071*%
%ADD34C,0.08071*%
%ADD38C,0.07000*%
%ADD39C,0.01500*%
%ADD40R,0.05906X0.05906*%
%ADD41C,0.05906*%
%ADD42C,0.04724*%
%ADD43C,0.06299*%
%ADD44R,0.06299X0.06299*%
%ADD45C,0.07087*%
%ADD46R,0.07087X0.07087*%
%ADD47C,0.05315*%
%ADD48R,0.05315X0.05315*%
%ADD49R,0.05315X0.05315*%
%ADD50C,0.19685*%
%ADD51R,0.05906X0.05906*%
%ADD52C,0.07000*%
%ADD53R,0.04724X0.04724*%
%ADD54R,0.06693X0.06693*%
%ADD55C,0.06693*%
%ADD56C,0.07677*%
%ADD57R,0.07677X0.07677*%
%ADD58C,0.03937*%
D12*
X284000Y187500D02*
X308500Y163000D01*
X249849Y280151D02*
X308500Y221500D01*
X153000Y176000D02*
X166399Y162601D01*
Y127716D02*
Y162601D01*
X201451Y344951D02*
X206000Y349500D01*
X201000Y386000D02*
X206000Y381000D01*
Y349500D02*
Y381000D01*
X174500Y380000D02*
X180500Y386000D01*
X201000D01*
X182500Y375500D02*
X189000D01*
X194500Y370000D01*
X180000Y373000D02*
X182500Y375500D01*
X180633Y379633D02*
X184133D01*
X169747Y375747D02*
X176747D01*
X184133Y379633D02*
X184500Y380000D01*
X176747Y375747D02*
X180633Y379633D01*
X180000Y366289D02*
Y373000D01*
X175498Y354951D02*
Y361786D01*
X180000Y366289D01*
X180046Y339500D02*
X185498Y344951D01*
X166000Y346000D02*
X172500Y339500D01*
X180046D01*
X166000Y346000D02*
Y372000D01*
X169747Y375747D01*
X175498Y344951D02*
X180546Y350000D01*
X200414D01*
X202000Y351586D02*
Y372500D01*
X200414Y350000D02*
X202000Y351586D01*
X194500Y380000D02*
X202000Y372500D01*
X195498Y344951D02*
X201451D01*
X184999Y355450D02*
Y369501D01*
X184500Y370000D02*
X184999Y369501D01*
Y355450D02*
X185498Y354951D01*
X24753Y293247D02*
X35247D01*
X91751Y349751D02*
X110298D01*
X35247Y293247D02*
X91751Y349751D01*
X96251Y299751D02*
X110298D01*
X39500Y243000D02*
X96251Y299751D01*
X28986Y243000D02*
X39500D01*
X95000Y310000D02*
X110546D01*
X37500Y252500D02*
X95000Y310000D01*
X29164Y252500D02*
X37500D01*
X30500Y257500D02*
X38000D01*
X95451Y314951D02*
X105498D01*
X38000Y257500D02*
X95451Y314951D01*
X92451Y334951D02*
X105498D01*
X31439Y278439D02*
X35939D01*
X92451Y334951D01*
X36500Y273000D02*
X93251Y329751D01*
X110298D01*
X25000Y273000D02*
X36500D01*
X30867Y267867D02*
X36867D01*
X93951Y324951D01*
X105498D01*
X25500Y262500D02*
X38000D01*
X95251Y319751D02*
X110298D01*
X38000Y262500D02*
X95251Y319751D01*
X145498Y354951D02*
Y363002D01*
X125500Y383000D02*
X145498Y363002D01*
X90000Y383000D02*
X125500D01*
X34953Y327953D02*
X90000Y383000D01*
X33500Y322500D02*
X90500Y379500D01*
X121500D02*
X140500Y360500D01*
X90500Y379500D02*
X121500D01*
X30953Y327953D02*
X34953D01*
X30500Y327500D02*
X30953Y327953D01*
X140500Y349949D02*
X145498Y344951D01*
X140500Y349949D02*
Y360500D01*
X25500Y322500D02*
X33500D01*
X20500Y327500D02*
X25500Y322500D01*
X135049Y355400D02*
Y359951D01*
Y355400D02*
X135498Y354951D01*
X119500Y375500D02*
X135049Y359951D01*
X92000Y375500D02*
X119500D01*
X30500Y317500D02*
X31439Y318439D01*
X34939D01*
X92000Y375500D01*
X33000Y312500D02*
X90500Y370000D01*
X28914Y312500D02*
X33000D01*
X90500Y370000D02*
X119500D01*
X130500Y350000D02*
X135498Y345002D01*
Y344951D02*
Y345002D01*
X130500Y350000D02*
Y359000D01*
X119500Y370000D02*
X130500Y359000D01*
X30500Y307500D02*
X31439Y308439D01*
X33439D01*
X91000Y366000D02*
X115500D01*
X33439Y308439D02*
X91000Y366000D01*
X24852Y316561D02*
X28914Y312500D01*
X20500Y317500D02*
X21439Y316561D01*
X24852D01*
X115500Y366000D02*
X125498Y356002D01*
Y354951D02*
Y356002D01*
X90451Y354951D02*
X105498D01*
X31399Y298399D02*
X33899D01*
X30500Y297500D02*
X31399Y298399D01*
X33899D02*
X90451Y354951D01*
X121000Y349449D02*
Y349500D01*
Y349449D02*
X125498Y344951D01*
X120698Y349802D02*
X121000Y349500D01*
X116500Y362000D02*
X120698Y357802D01*
Y349802D02*
Y357802D01*
X92454Y362000D02*
X116500D01*
X32954Y302500D02*
X92454Y362000D01*
X25500Y302500D02*
X32954D01*
X20500Y307500D02*
X25500Y302500D01*
X110298Y349751D02*
X115498Y354951D01*
X20500Y297500D02*
X24753Y293247D01*
X92451Y344951D02*
X105498D01*
X35000Y287500D02*
X92451Y344951D01*
X30500Y287500D02*
X35000D01*
X35454Y283000D02*
X92606Y340151D01*
X25000Y283000D02*
X35454D01*
X92606Y340151D02*
X110698D01*
X115498Y344951D01*
X30500Y277500D02*
X31439Y278439D01*
X20500Y287500D02*
X25000Y283000D01*
X110298Y329751D02*
X115498Y334951D01*
X20500Y277500D02*
X25000Y273000D01*
X30500Y267500D02*
X30867Y267867D01*
X20500Y267500D02*
X25500Y262500D01*
X110298Y319751D02*
X115498Y324951D01*
X30500Y247500D02*
X37500D01*
X94951Y304951D02*
X105498D01*
X37500Y247500D02*
X94951Y304951D01*
X110546Y310000D02*
X115498Y314951D01*
X21289Y256711D02*
X24953D01*
X29164Y252500D01*
X20500Y257500D02*
X21289Y256711D01*
X110298Y299751D02*
X115498Y304951D01*
X20500Y247500D02*
X20967Y247033D01*
X24953D01*
X28986Y243000D01*
X97500Y295000D02*
X105449D01*
X105498Y294951D01*
X40000Y237500D02*
X97500Y295000D01*
X30500Y237500D02*
X40000D01*
X110298Y289751D02*
X115498Y294951D01*
X99251Y289751D02*
X110298D01*
X42000Y232500D02*
X99251Y289751D01*
X20967Y237033D02*
X24953D01*
X20500Y237500D02*
X20967Y237033D01*
X24953D02*
X29486Y232500D01*
X42000D01*
X104544Y283998D02*
X105498Y284951D01*
X100498Y283998D02*
X104544D01*
X44000Y227500D02*
X100498Y283998D01*
X30500Y227500D02*
X44000D01*
X24953Y227033D02*
X29986Y222000D01*
X44500D01*
X102251Y279751D01*
X110298D02*
X115498Y284951D01*
X102251Y279751D02*
X110298D01*
X20500Y227500D02*
X20967Y227033D01*
X24953D01*
X222381Y354881D02*
X222451Y354951D01*
X218500Y353000D02*
X218500D01*
X220381Y354881D01*
X222381D01*
X222451Y354951D02*
X235498D01*
X187500Y322000D02*
X218500Y353000D01*
X119353Y219853D02*
X187500Y288000D01*
Y322000D01*
X103611Y219853D02*
X119353D01*
X30500Y217500D02*
X101258D01*
X103611Y219853D01*
X40000Y202000D02*
X44500Y197500D01*
X25500Y212500D02*
X97500D01*
X44500Y197500D02*
X131000D01*
X41000Y194500D02*
X133000D01*
X90000Y207500D02*
X97349Y200151D01*
X97500Y212500D02*
X100000Y210000D01*
X133000Y194500D02*
X204500Y266000D01*
X30500Y207500D02*
X90000D01*
X38000Y197500D02*
X41000Y194500D01*
X131000Y197500D02*
X201000Y267500D01*
X20500Y217500D02*
X25500Y212500D01*
X241046Y350500D02*
X241046D01*
X221751Y349751D02*
X240298D01*
X241046Y350500D01*
X241046D02*
X245498Y354951D01*
X191500Y319500D02*
X221751Y349751D01*
X191500Y272000D02*
Y319500D01*
X129500Y210000D02*
X191500Y272000D01*
X100000Y210000D02*
X129500D01*
X197500Y320000D02*
X222451Y344951D01*
X235498D01*
X197500Y269000D02*
Y320000D01*
X128651Y200151D02*
X197500Y269000D01*
X97349Y200151D02*
X128651D01*
X204500Y266000D02*
Y311000D01*
X201000Y317500D02*
X223251Y339751D01*
X240298D02*
X245498Y344951D01*
X223251Y339751D02*
X240298D01*
X201000Y267500D02*
Y317500D01*
X204500Y311000D02*
X228451Y334951D01*
X20967Y207033D02*
X24953D01*
X29986Y202000D01*
X40000D01*
X20500Y207500D02*
X20967Y207033D01*
X35500Y176000D02*
X147000D01*
X28738Y173247D02*
X32747D01*
X147000Y176000D02*
X226000Y255000D01*
X32747Y173247D02*
X35500Y176000D01*
X30500Y177500D02*
X31797D01*
X34297Y180000D01*
X145000D01*
X221000Y256000D01*
X24953Y187033D02*
X28986Y183000D01*
X141000D02*
X217000Y259000D01*
X28986Y183000D02*
X141000D01*
X228451Y334951D02*
X235498D01*
X208500Y262500D02*
Y307500D01*
X231151Y330151D01*
X240698D01*
X136500Y190500D02*
X208500Y262500D01*
X212500Y261500D02*
Y307500D01*
X229951Y324951D01*
X138500Y187500D02*
X212500Y261500D01*
X30500Y197500D02*
X38000D01*
X240698Y330151D02*
X245498Y334951D01*
X37500Y190500D02*
X136500D01*
X35500Y192500D02*
X37500Y190500D01*
X25500Y192500D02*
X35500D01*
X20500Y197500D02*
X25500Y192500D01*
X229951Y324951D02*
X235498D01*
X217000Y259000D02*
Y306781D01*
X230371Y320151D01*
X240698D01*
X221000Y306000D02*
X229951Y314951D01*
X235498D01*
X221000Y256000D02*
Y306000D01*
X30500Y187500D02*
X138500D01*
X240698Y320151D02*
X245498Y324951D01*
X226000Y304000D02*
X232151Y310151D01*
X226000Y255000D02*
Y304000D01*
X232151Y310151D02*
X240698D01*
X20967Y187033D02*
X24953D01*
X20500Y187500D02*
X20967Y187033D01*
X240698Y310151D02*
X245498Y314951D01*
X295500Y339000D02*
X302500D01*
X261451Y304951D02*
X295500Y339000D01*
X245498Y304951D02*
X261451D01*
X261500Y300000D02*
X290500Y329000D01*
X302500D01*
X240449Y300000D02*
X261500D01*
X235498Y304951D02*
X240449Y300000D01*
X20500Y177500D02*
X20967Y177033D01*
X24953D01*
X28738Y173247D01*
X240449Y210000D02*
X248500D01*
X235498Y214951D02*
X240449Y210000D01*
X248500D02*
X251500Y207000D01*
Y150500D02*
Y207000D01*
X230633Y129633D02*
X251500Y150500D01*
X228500Y122000D02*
X254000Y147500D01*
X226909Y66076D02*
X228500Y67666D01*
X226909Y65612D02*
Y66076D01*
X228500Y67666D02*
Y122000D01*
X243500Y230000D02*
X252000D01*
X254000Y147500D02*
Y228000D01*
X252000Y230000D02*
X254000Y228000D01*
X235498Y244002D02*
X240298Y239202D01*
X235498Y244002D02*
Y244951D01*
X240298Y233202D02*
Y239202D01*
Y233202D02*
X243500Y230000D01*
X245498Y294951D02*
X262069D01*
X286118Y319000D01*
X302500D01*
X263873Y285511D02*
X287362Y309000D01*
X302500D01*
X248000Y250000D02*
X280000Y218000D01*
Y175500D02*
Y218000D01*
Y175500D02*
X298500Y157000D01*
X240449Y250000D02*
X248000D01*
X235498Y254951D02*
X240449Y250000D01*
X251500Y264000D02*
Y266500D01*
X248000Y270000D02*
X251500Y266500D01*
X240546Y270000D02*
X248000D01*
X235498Y264951D02*
X240546Y270000D01*
X251500Y264000D02*
X292000Y223500D01*
Y194500D02*
Y223500D01*
Y194500D02*
X317000Y169500D01*
Y146500D02*
Y169500D01*
X313000Y142500D02*
X317000Y146500D01*
X289000Y188000D02*
X315000Y162000D01*
Y153500D02*
Y162000D01*
X308500Y147000D02*
X315000Y153500D01*
X306986Y142500D02*
X313000D01*
X302953Y146533D02*
X306986Y142500D01*
X298967Y146533D02*
X302953D01*
X298500Y147000D02*
X298967Y146533D01*
X308500Y157000D02*
Y163000D01*
X284000Y187500D02*
Y219500D01*
X245498Y254951D02*
X246508Y253941D01*
X249559D01*
X284000Y219500D01*
X245498Y264951D02*
X289000Y221449D01*
Y188000D02*
Y221449D01*
X250549Y284951D02*
X313500Y222000D01*
X245498Y284951D02*
X250549D01*
X235498Y294951D02*
X240698Y289751D01*
X252249D01*
X316500Y225500D01*
Y209000D02*
Y225500D01*
X313500Y213500D02*
Y222000D01*
X308500Y215500D02*
Y221500D01*
X240298Y280151D02*
X249849D01*
X313000Y205500D02*
X316500Y209000D01*
X310500Y210500D02*
X313500Y213500D01*
X308500Y205500D02*
X313000D01*
X303500Y210500D02*
X310500D01*
X298500Y205500D02*
X303500Y210500D01*
X235498Y284951D02*
X240298Y280151D01*
D28*
X131500Y70000D02*
D03*
X85000Y63500D02*
D03*
D29*
X141500Y70000D02*
D03*
X75000Y63500D02*
D03*
D33*
X268197Y86500D02*
D03*
X129500Y18000D02*
D03*
D34*
X268197Y96500D02*
D03*
Y106500D02*
D03*
X129500Y38000D02*
D03*
Y28000D02*
D03*
D38*
X77842Y15157D02*
X106158D01*
X55343Y37657D02*
X77842Y15157D01*
X31000Y37657D02*
X55343D01*
X31000Y57342D02*
X47343D01*
X79500Y32100D02*
X83600Y28000D01*
X100500D01*
X79500Y32100D02*
Y37500D01*
X69500Y47750D02*
X75000Y53250D01*
X69500Y37500D02*
Y47750D01*
X75000Y53250D02*
Y63500D01*
X56000Y66000D02*
X72500D01*
X75000Y63500D01*
X47343Y57342D02*
X56000Y66000D01*
X100500Y28000D02*
X110500Y38000D01*
X129500D01*
X116284Y106500D02*
X119783Y103000D01*
X99000Y106500D02*
X116284D01*
X37157Y117000D02*
X60000D01*
X31000Y110843D02*
X37157Y117000D01*
X82000Y102500D02*
X88500D01*
X92500Y106500D02*
X99000D01*
X88500Y102500D02*
X92500Y106500D01*
X60000Y117000D02*
X74500Y102500D01*
X82000D01*
X99000Y136500D02*
X146000D01*
X82000Y112500D02*
X99000Y129500D01*
Y136500D01*
X82000Y92500D02*
X100343D01*
X104500Y88342D01*
X35157Y87000D02*
X60000D01*
X31000Y91158D02*
X35157Y87000D01*
X65500Y92500D02*
X82000D01*
X60000Y87000D02*
X65500Y92500D01*
X106158Y15157D02*
X118795Y27795D01*
X137216Y10283D02*
X150000D01*
X129500Y18000D02*
X137216Y10283D01*
X118795Y27795D02*
X129295D01*
X85000Y52500D02*
X89500Y48000D01*
Y37500D02*
Y48000D01*
X85000Y52500D02*
Y63500D01*
X90158Y68657D01*
X104500D01*
X118941Y88342D02*
X131500Y75783D01*
Y70000D02*
Y75783D01*
X104500Y88342D02*
X118941D01*
X167000Y20000D02*
X177000D01*
X167000D02*
Y115500D01*
X146000Y136500D02*
X167000Y115500D01*
X20500Y167500D02*
X30500D01*
X78500D01*
X308500Y137000D02*
X323000D01*
Y195500D01*
Y86315D02*
Y137000D01*
Y195500D02*
Y349500D01*
X308500Y195500D02*
X323000D01*
X302500Y359000D02*
X313500D01*
X323000Y349500D01*
X297000Y60315D02*
X323000Y86315D01*
X239000Y80283D02*
X245216Y86500D01*
X268197D01*
X285542Y99555D02*
X296870D01*
X297000Y99685D01*
X282692Y96705D02*
X285542Y99555D01*
X268402Y96705D02*
X282692D01*
X268197Y96500D02*
X268402Y96705D01*
X272716Y62500D02*
X279500D01*
X297000Y80000D01*
X233500Y36500D02*
X273185D01*
X297000Y60315D01*
X217000Y20000D02*
X233500Y36500D01*
X235498Y154951D02*
X245498D01*
X184500Y132500D02*
X206951Y154951D01*
X235498D01*
X184500Y89000D02*
Y132500D01*
X178000Y82500D02*
X184500Y89000D01*
X207000Y20000D02*
X217000D01*
X197000D02*
X207000D01*
X187000D02*
X197000D01*
X177000D02*
X187000D01*
X78500Y167500D02*
X99000Y147000D01*
Y136500D02*
Y147000D01*
X129295Y27795D02*
X129500Y28000D01*
D39*
X219500Y45000D02*
X231500Y57000D01*
Y118500D01*
X258500Y145500D01*
Y231949D01*
X245498Y244951D02*
X258500Y231949D01*
X150716Y45000D02*
X159500D01*
X150000Y45717D02*
X150716Y45000D01*
X174500D02*
X219500D01*
X155217Y116217D02*
X155500Y116500D01*
X155217Y103000D02*
Y116217D01*
X154717Y88000D02*
X155217Y88500D01*
Y103000D01*
D40*
X308500Y137000D02*
D03*
Y195500D02*
D03*
X30500Y167500D02*
D03*
X20500D02*
D03*
D41*
X298500Y137000D02*
D03*
X308500Y147000D02*
D03*
X298500D02*
D03*
X308500Y157000D02*
D03*
X298500D02*
D03*
Y195500D02*
D03*
X308500Y205500D02*
D03*
X298500D02*
D03*
X308500Y215500D02*
D03*
X298500D02*
D03*
X30500Y177500D02*
D03*
Y187500D02*
D03*
Y197500D02*
D03*
Y207500D02*
D03*
Y217500D02*
D03*
Y227500D02*
D03*
Y237500D02*
D03*
Y247500D02*
D03*
Y257500D02*
D03*
Y267500D02*
D03*
Y277500D02*
D03*
Y287500D02*
D03*
Y297500D02*
D03*
Y307500D02*
D03*
Y317500D02*
D03*
Y327500D02*
D03*
Y337500D02*
D03*
Y347500D02*
D03*
Y357500D02*
D03*
X20500D02*
D03*
Y347500D02*
D03*
Y337500D02*
D03*
Y327500D02*
D03*
Y317500D02*
D03*
Y307500D02*
D03*
Y297500D02*
D03*
Y287500D02*
D03*
Y277500D02*
D03*
Y267500D02*
D03*
Y257500D02*
D03*
Y247500D02*
D03*
Y237500D02*
D03*
Y227500D02*
D03*
Y217500D02*
D03*
Y207500D02*
D03*
Y197500D02*
D03*
Y187500D02*
D03*
Y177500D02*
D03*
X174500Y380000D02*
D03*
X184500Y370000D02*
D03*
Y380000D02*
D03*
X194500Y370000D02*
D03*
Y380000D02*
D03*
D42*
X99000Y106500D02*
D03*
Y136500D02*
D03*
X60000Y117000D02*
D03*
Y87000D02*
D03*
X69500Y37500D02*
D03*
X79500D02*
D03*
D43*
X31000Y91158D02*
D03*
Y37657D02*
D03*
X302500Y249000D02*
D03*
Y259000D02*
D03*
Y269000D02*
D03*
Y289000D02*
D03*
Y299000D02*
D03*
Y319000D02*
D03*
Y339000D02*
D03*
Y349000D02*
D03*
Y329000D02*
D03*
Y309000D02*
D03*
Y279000D02*
D03*
D44*
X31000Y110843D02*
D03*
Y57342D02*
D03*
X302500Y359000D02*
D03*
D45*
X233500Y20000D02*
D03*
X243500D02*
D03*
X253500D02*
D03*
X273500D02*
D03*
X263500D02*
D03*
X167000D02*
D03*
X177000D02*
D03*
X187000D02*
D03*
X207000D02*
D03*
X197000D02*
D03*
D46*
X283500D02*
D03*
X217000D02*
D03*
D47*
X155217Y103000D02*
D03*
X119283Y88000D02*
D03*
X104500Y68657D02*
D03*
X272716Y62500D02*
D03*
X239000Y80283D02*
D03*
X150000Y10283D02*
D03*
D48*
X119783Y103000D02*
D03*
X154717Y88000D02*
D03*
X237283Y62500D02*
D03*
D49*
X104500Y88342D02*
D03*
X239000Y115717D02*
D03*
X150000Y45717D02*
D03*
D50*
X318000Y12500D02*
D03*
X23500D02*
D03*
Y378500D02*
D03*
X318000D02*
D03*
D51*
X174500Y370000D02*
D03*
D52*
X235498Y154951D02*
D03*
Y164951D02*
D03*
Y184951D02*
D03*
Y174951D02*
D03*
Y194951D02*
D03*
X245498Y154951D02*
D03*
Y164951D02*
D03*
Y184951D02*
D03*
Y174951D02*
D03*
Y194951D02*
D03*
X235498Y204951D02*
D03*
Y214951D02*
D03*
Y234951D02*
D03*
Y224951D02*
D03*
Y274951D02*
D03*
Y264951D02*
D03*
Y244951D02*
D03*
Y254951D02*
D03*
Y284951D02*
D03*
Y294951D02*
D03*
Y314951D02*
D03*
Y304951D02*
D03*
Y354951D02*
D03*
Y344951D02*
D03*
Y324951D02*
D03*
Y334951D02*
D03*
X245498Y204951D02*
D03*
Y214951D02*
D03*
Y234951D02*
D03*
Y224951D02*
D03*
Y274951D02*
D03*
Y264951D02*
D03*
Y244951D02*
D03*
Y254951D02*
D03*
Y284951D02*
D03*
Y294951D02*
D03*
Y314951D02*
D03*
Y304951D02*
D03*
Y354951D02*
D03*
Y344951D02*
D03*
Y324951D02*
D03*
Y334951D02*
D03*
X195498Y354951D02*
D03*
X185498D02*
D03*
X175498D02*
D03*
X195498Y344951D02*
D03*
X185498D02*
D03*
X175498D02*
D03*
X105498Y204951D02*
D03*
Y214951D02*
D03*
Y234951D02*
D03*
Y224951D02*
D03*
Y274951D02*
D03*
Y264951D02*
D03*
Y244951D02*
D03*
Y254951D02*
D03*
Y284951D02*
D03*
Y294951D02*
D03*
Y314951D02*
D03*
Y304951D02*
D03*
Y354951D02*
D03*
Y344951D02*
D03*
Y324951D02*
D03*
Y334951D02*
D03*
X115498Y204951D02*
D03*
Y214951D02*
D03*
Y234951D02*
D03*
Y224951D02*
D03*
Y274951D02*
D03*
Y264951D02*
D03*
Y244951D02*
D03*
Y254951D02*
D03*
Y284951D02*
D03*
Y294951D02*
D03*
Y314951D02*
D03*
Y304951D02*
D03*
Y354951D02*
D03*
Y344951D02*
D03*
Y324951D02*
D03*
Y334951D02*
D03*
X145498Y354951D02*
D03*
X135498D02*
D03*
X125498D02*
D03*
X145498Y344951D02*
D03*
X135498D02*
D03*
X125498D02*
D03*
D53*
X89500Y37500D02*
D03*
D54*
X82000Y92500D02*
D03*
D55*
Y102500D02*
D03*
Y112500D02*
D03*
D56*
X297000Y80000D02*
D03*
Y99685D02*
D03*
D57*
Y60315D02*
D03*
D58*
X153000Y176000D02*
D03*
X230633Y129633D02*
D03*
X226909Y65612D02*
D03*
X159500Y45000D02*
D03*
X174500D02*
D03*
X166399Y127716D02*
D03*
X155500Y116500D02*
D03*
X263873Y285511D02*
D03*
X178000Y82500D02*
D03*
M02*
