G04*
G04 #@! TF.GenerationSoftware,Altium Limited,Altium Designer,21.9.2 (33)*
G04*
G04 Layer_Color=32768*
%FSLAX25Y25*%
%MOIN*%
G70*
G04*
G04 #@! TF.SameCoordinates,93054606-FE03-420F-9484-365B998A07D4*
G04*
G04*
G04 #@! TF.FilePolarity,Positive*
G04*
G01*
G75*
%ADD59C,0.00394*%
%ADD60C,0.00197*%
D59*
X29032Y101000D02*
X32969D01*
X31000Y99032D02*
Y102969D01*
X135531Y103000D02*
X139469D01*
X137500Y101031D02*
Y104969D01*
X135031Y88000D02*
X138969D01*
X137000Y86032D02*
Y89969D01*
X29032Y47500D02*
X32969D01*
X31000Y45531D02*
Y49468D01*
X253031Y62500D02*
X256968D01*
X255000Y60532D02*
Y64468D01*
X80032Y102500D02*
X83969D01*
X82000Y100531D02*
Y104469D01*
X237032Y98000D02*
X240968D01*
X239000Y96031D02*
Y99968D01*
X148031Y28000D02*
X151969D01*
X150000Y26032D02*
Y29969D01*
D60*
X14465Y123441D02*
X47535D01*
Y80921D02*
Y123441D01*
X14465Y80921D02*
X47535D01*
X14465D02*
Y123441D01*
X228106Y30413D02*
X288894D01*
Y7106D02*
Y30413D01*
X228106Y7106D02*
Y30413D01*
Y7106D02*
X288894D01*
X116732Y97882D02*
Y108118D01*
Y97882D02*
X158268D01*
X116732Y108118D02*
X158268D01*
Y97882D02*
Y108118D01*
X157768Y82882D02*
Y93118D01*
X116232D02*
X157768D01*
X116232Y82882D02*
X157768D01*
X116232D02*
Y93118D01*
X14465Y69941D02*
X47535D01*
Y27421D02*
Y69941D01*
X14465Y27421D02*
X47535D01*
X14465D02*
Y69941D01*
X234232Y57382D02*
Y67618D01*
Y57382D02*
X275768D01*
X234232Y67618D02*
X275768D01*
Y57382D02*
Y67618D01*
X161606Y30413D02*
X222394D01*
Y7106D02*
Y30413D01*
X161606Y7106D02*
Y30413D01*
Y7106D02*
X222394D01*
X279874Y47323D02*
Y110315D01*
X314126D01*
Y47323D02*
Y110315D01*
X279874Y47323D02*
X314126D01*
X297000Y78031D02*
Y81968D01*
X295031Y80000D02*
X298969D01*
X233882Y77232D02*
X244118D01*
Y118768D01*
X233882Y77232D02*
Y118768D01*
X244118D01*
X302500Y302031D02*
Y305968D01*
X300532Y304000D02*
X304468D01*
X308583Y242622D02*
Y365378D01*
X296417Y242622D02*
X308583D01*
X296417D02*
Y365378D01*
X308583D01*
X144882Y7232D02*
X155118D01*
Y48768D01*
X144882Y7232D02*
Y48768D01*
X155118D01*
M02*
